<svg width="56" height="52" fill="none" xmlns="http://www.w3.org/2000/svg"><mask id="a" maskUnits="userSpaceOnUse" x="0" y="0" width="56" height="52" fill="#000"><path fill="#fff" d="M0 0h56v52H0z"/><path fill-rule="evenodd" clip-rule="evenodd" d="M54.285 5.411a1.922 1.922 0 010 2.723L27.362 35.057a1.921 1.921 0 01-2.723 0L13.1 23.52a1.926 1.926 0 112.723-2.723L26 30.976 51.562 5.412a1.923 1.923 0 012.723 0zM26 4.85a21.154 21.154 0 1021.154 21.154 1.923 1.923 0 013.846 0A25 25 0 1138.5 4.35a1.925 1.925 0 01-.434 3.572 1.923 1.923 0 01-1.49-.245A21.046 21.046 0 0026 4.85z"/></mask><path fill-rule="evenodd" clip-rule="evenodd" d="M54.285 5.411a1.922 1.922 0 010 2.723L27.362 35.057a1.921 1.921 0 01-2.723 0L13.1 23.52a1.926 1.926 0 112.723-2.723L26 30.976 51.562 5.412a1.923 1.923 0 012.723 0zM26 4.85a21.154 21.154 0 1021.154 21.154 1.923 1.923 0 013.846 0A25 25 0 1138.5 4.35a1.925 1.925 0 01-.434 3.572 1.923 1.923 0 01-1.49-.245A21.046 21.046 0 0026 4.85z" fill="#089C84"/><path d="M54.285 8.134l-.706-.708-.001.001.707.707zM27.362 35.057l-.707-.707-.001.001.708.706zm-2.723 0l.708-.706h-.001l-.707.706zm-12.103-12.9h-1 1zm1.926-1.925v1-1zm1.361.564l.707-.707-.707.707zM26 30.976l-.707.707.707.708.707-.707-.707-.707zM51.562 5.412l.707.707-.707-.707zm1.361-.565v1-1zM51 26.003h1-1zM38.5 4.35l-.5.866.018.01.018.01.464-.886zm-1.923 3.327l.536-.844-.017-.01-.018-.011-.501.865zM53.579 6.12a.925.925 0 01.2.3l1.847-.767a2.922 2.922 0 00-.635-.949L53.578 6.12zm.2.3c.047.112.07.232.07.354h2c0-.385-.075-.765-.223-1.12l-1.847.766zm.07.354a.924.924 0 01-.07.353l1.847.767c.148-.355.224-.736.224-1.12h-2zm-.07.353a.925.925 0 01-.2.3l1.412 1.416c.272-.271.488-.594.635-.949l-1.847-.767zm-.201.301L26.654 34.35l1.415 1.414L54.992 8.841l-1.414-1.414zM26.654 34.351a.925.925 0 01-.3.2l.766 1.848c.355-.147.678-.363.95-.636l-1.416-1.412zm-.3.2a.924.924 0 01-.354.071v2c.385 0 .765-.076 1.12-.223l-.766-1.847zm-.354.071a.924.924 0 01-.354-.07l-.766 1.847a2.93 2.93 0 001.12.223v-2zm-.354-.07a.925.925 0 01-.3-.2l-1.415 1.412c.271.272.594.488.949.635l.766-1.847zm-.3-.202L13.807 22.812l-1.414 1.414 11.538 11.538 1.415-1.414zM13.807 22.812a.925.925 0 01-.2-.3l-1.848.765c.147.355.362.677.634.949l1.414-1.414zm-.2-.3a.926.926 0 01-.07-.355h-2c0 .384.075.765.222 1.12l1.848-.765zm-.07-.355c0-.121.023-.242.07-.354l-1.848-.765a2.925 2.925 0 00-.223 1.12h2zm.07-.354a.925.925 0 01.2-.3l-1.414-1.414a2.923 2.923 0 00-.634.949l1.848.765zm.2-.3a.926.926 0 01.3-.2l-.765-1.849a2.925 2.925 0 00-.949.635l1.414 1.414zm.3-.2a.925.925 0 01.355-.071v-2a2.93 2.93 0 00-1.12.223l.765 1.847zm.355-.071c.121 0 .242.024.354.07l.765-1.848a2.926 2.926 0 00-1.12-.222v2zm.354.07a.927.927 0 01.3.2l1.414-1.413a2.925 2.925 0 00-.949-.634l-.765 1.847zm.3.2l10.177 10.181 1.414-1.413L16.53 20.089l-1.414 1.414zm11.591 10.182L52.27 6.118l-1.415-1.414L25.293 30.27l1.414 1.414zM52.27 6.117a.922.922 0 01.3-.2l-.767-1.848a2.923 2.923 0 00-.95.636l1.417 1.412zm.3-.2a.922.922 0 01.353-.07v-2c-.384 0-.765.075-1.12.222l.766 1.848zm.353-.07c.122 0 .242.023.354.07l.767-1.848a2.924 2.924 0 00-1.12-.223v2zm.354.07a.923.923 0 01.3.2l1.416-1.412a2.924 2.924 0 00-.95-.636l-.766 1.848zM26 3.849c-4.382 0-8.665 1.3-12.308 3.734l1.111 1.663A20.154 20.154 0 0126 5.849v-2zM13.692 7.583a22.154 22.154 0 00-8.16 9.942l1.848.766a20.155 20.155 0 017.423-9.045l-1.111-1.663zm-8.16 9.942a22.154 22.154 0 00-1.26 12.8l1.961-.39A20.154 20.154 0 017.38 18.291l-1.847-.766zm-1.26 12.8a22.153 22.153 0 006.063 11.343l1.414-1.414a20.153 20.153 0 01-5.516-10.319l-1.961.39zm6.063 11.343a22.154 22.154 0 0011.343 6.063l.39-1.961a20.153 20.153 0 01-10.319-5.516l-1.414 1.414zm11.343 6.063c4.297.855 8.752.416 12.8-1.26l-.765-1.848a20.154 20.154 0 01-11.645 1.147l-.39 1.961zm12.8-1.26a22.153 22.153 0 009.942-8.16l-1.663-1.11a20.153 20.153 0 01-9.044 7.422l.765 1.848zm9.942-8.16a22.154 22.154 0 003.734-12.308h-2A20.15 20.15 0 0142.757 37.2l1.663 1.111zm3.734-12.308a.92.92 0 01.27-.652l-1.414-1.415a2.923 2.923 0 00-.856 2.067h2zm.27-.652a.923.923 0 01.653-.27v-2c-.775 0-1.519.307-2.067.855l1.414 1.415zm.653-.27a.92.92 0 01.653.27l1.414-1.415a2.923 2.923 0 00-2.067-.856v2zm.653.27c.173.173.27.407.27.652h2c0-.775-.308-1.518-.856-2.067l-1.414 1.415zm.27.652a24 24 0 01-4.961 14.61l1.586 1.217A26 26 0 0052 26.003h-2zm-4.961 14.61a24 24 0 01-12.83 8.57l.518 1.932a26 26 0 0013.898-9.285l-1.586-1.218zm-12.83 8.57a24 24 0 01-15.395-1.01l-.766 1.847a26 26 0 0016.679 1.095l-.518-1.932zm-15.395-1.01a24 24 0 01-11.6-10.174l-1.731 1A26 26 0 0016.048 50.02l.766-1.848zm-11.6-10.174a24 24 0 01-3.008-15.133l-1.983-.26a26 26 0 003.26 16.393l1.732-1zM2.207 22.866A24 24 0 019.03 9.03L7.616 7.615a26 26 0 00-7.393 14.99l1.983.261zM9.03 9.03a24 24 0 0113.838-6.824L22.607.222A26 26 0 007.616 7.615L9.03 9.029zm13.838-6.824A24 24 0 0138 5.215l1-1.732A26 26 0 0022.607.223l.26 1.982zm15.168 3.03c.11.058.208.138.287.234l1.548-1.266a2.922 2.922 0 00-.907-.74l-.928 1.772zm.287.234a.923.923 0 01.172.327l1.92-.557a2.922 2.922 0 00-.544-1.036L38.323 5.47zm.172.327a.92.92 0 01.03.369l1.985.24a2.923 2.923 0 00-.094-1.166l-1.92.557zm.03.369a.925.925 0 01-.117.35l1.731 1.001a2.9 2.9 0 00.371-1.11l-1.985-.241zm-.117.35a.923.923 0 01-.246.277l1.2 1.6a2.91 2.91 0 00.777-.876l-1.731-1zm-.246.277a.923.923 0 01-.334.158l.476 1.943a2.922 2.922 0 001.058-.501l-1.2-1.6zm-.334.158a.923.923 0 01-.37.014l-.324 1.974c.39.064.787.048 1.17-.045l-.476-1.943zm-.37.014a.924.924 0 01-.345-.132L36.041 8.52c.332.212.704.354 1.093.418l.325-1.974zm-.38-.153a22.046 22.046 0 00-11.08-2.962l.004 2a20.046 20.046 0 0110.074 2.693l1.002-1.731z" fill="#089C84" mask="url(#a)"/></svg>