<svg xmlns="http://www.w3.org/2000/svg" viewBox="0 0 110 27"><path d="M49.7 11.1c4 0 6.8 2.9 6.8 6.9 0 .3 0 .8-.1 1 0 .4-.3.6-.7.6H44.9c.1 2.5 2.4 4.9 5.1 4.9 1.6 0 2.9-.6 3.7-1.1.5-.3.8-.5 1.1-.1l.6.9c.3.3.4.6-.1 1-.9.7-2.9 1.7-5.5 1.7-4.6 0-7.4-3.6-7.4-7.9-.1-4.2 2.7-7.9 7.3-7.9zm4.2 6.4c-.1-2.2-1.9-4.1-4.2-4.1-2.5 0-4.5 1.8-4.8 4.1h9zM60.5.9c0-.4.3-.7.7-.7h1.2c.4 0 .7.3.7.7v11.2s1.6-1 4-1c4.5 0 7.2 3.5 7.2 7.9 0 4.3-3 8-6.9 8-2.8 0-4.6-2-4.6-2l-.2 1c-.1.3-.3.6-.6.6h-.8c-.4 0-.7-.3-.7-.7V.9zm6.8 23.7c2.8 0 4.5-2.6 4.5-5.5 0-3-1.7-5.4-4.9-5.4-2.1 0-3.7.9-3.7.9v7.5s1.4 2.5 4.1 2.5zM78 6.4c0-1 .8-1.8 1.8-1.8s1.8.8 1.8 1.8-.8 1.8-1.8 1.8c-1-.1-1.8-.8-1.8-1.8zm.6 5.8c0-.4.3-.7.7-.7h1.2c.4 0 .7.3.7.7v13.7c0 .4-.3.7-.7.7h-1.2c-.4 0-.7-.3-.7-.7V12.2zm7.8 0c0-.4.3-.7.7-.7h.7c.3 0 .5.1.6.5l.3 1.2s1.8-2 4.9-2c2.2 0 3.8.9 4.8 2.5.2-.1 2.6-2.5 5.6-2.5 4.4 0 5.8 2.9 5.8 6.8v8c0 .4-.3.7-.7.7h-1.2c-.4 0-.7-.3-.7-.7v-8c0-2.8-1.2-4.3-3.4-4.3-2.5 0-4.1 1.6-4.6 2.1.1.6.2 1.4.2 2.1v8c0 .4-.3.7-.7.7h-1.2c-.4 0-.7-.3-.7-.7v-8c0-2.9-1.3-4.3-3.6-4.3-2.7 0-4.3 2.1-4.3 2.1v10.1c0 .4-.3.7-.7.7H87c-.4 0-.7-.3-.7-.7l.1-13.6zM40.2.1c-.4 0-.8.3-.9.7V1l-.5 2.4c-.1.8-.3 1.6-.5 2.4l-.1.4c-.4 1.9-.9 3.9-1.4 5.8-.5 2.1-1.1 4-1.7 5.8-.3 1-.7 2-1 2.7l-.6 1.2c-.2.4-1 1.9-2.1.2-.2-.3-.4-.7-.7-1.1-.9-1.7-1.7-3.8-2.3-5.7l-.5-1.4c-.5-1.4-1-2.9-1.6-4.3-.1-.1-.1-.3-.2-.4-.4-.9-.8-2-1.4-3.1-.3-.6-.6-1.1-.9-1.5-.3-.5-.7-1-1.4-1.5-.3-.2-.7-.4-1-.5-.4-.1-.8-.1-1.2 0-.4.1-.7.2-1.1.5-.3.2-.6.5-.8.7-.5.6-.8 1.1-1.1 1.6 0 0 3-.4 4.8 2.6 0 0 0 .1.1.1 0 .1.1.2.2.3.4.7.8 1.6 1.2 2.7.5 1.3 1 2.7 1.6 4.2.2.6.4 1.2.7 1.8.3.9.8 2 1.2 3.1.3.8.8 2 1.4 3.1.2.4.5 1 .9 1.5.3.5.7 1 1.3 1.5.3.2.6.4 1 .5.4.1.8.2 1.2.1.5-.1.9-.3 1.1-.4.3-.2.6-.4.8-.7.5-.5.8-1.1 1.1-1.6.3-.5.5-1 .8-1.6.4-1 .8-2 1.1-3.2.7-2.2 1.1-4.3 1.6-6.2.4-1.8.7-3.7 1.1-6.1l.1-.5c.1-.8.3-1.6.4-2.5l.4-2.5v-.3c-.1-.6-.5-1-1.1-1z" fill="#272a51"/><linearGradient id="a" gradientUnits="userSpaceOnUse" x1="-2" y1="75.881" x2="20.012" y2="75.881" gradientTransform="matrix(1 0 0 -1 2 86.7)"><stop offset="0" stop-color="#28e2ff"/><stop offset="1" stop-color="#2e3192"/></linearGradient><path d="M17.2 5.1c-.3.5-.5 1-.7 1.6-.2.5-.4 1.1-.6 1.6l-.5 1.6c-.3 1-.6 1.9-.9 2.7-.3.9-.7 1.7-1.1 2.4-.3.5-.8 1.3-1.3 1.8-.5.4-.9.6-1.5.6-.5 0-1.1-.3-1.7-.8-.5-.4-1-.9-1.5-1.6-.4-.6-.9-1.3-1.3-2-.7-1.3-1.5-2.7-2.2-4.3C2.4 5.9 1.5 3.4.8 1.2.7 1.1.6 1 .5 1H.4c-.1 0-.2 0-.3.1-.1 0-.1.1-.1.2s0 .2.1.2c.6 2.2 1.4 5.1 2.5 8.2.5 1.3 1.1 3 2 4.7.4.9.9 1.7 1.3 2.4.6.9 1.1 1.6 1.8 2.2.4.4.8.7 1.2.9.5.3 1 .5 1.4.5.5.1 1.1 0 1.6-.1.5-.2 1-.4 1.5-.8 1-.8 1.6-1.7 2.1-2.5s1-1.7 1.5-2.9c.4-.9.8-1.9 1.1-3l.5-1.4c.2-.5.4-.9.5-1.3.9-2.3 2-2.4 3-.8-1.9-3.2-4.9-2.5-4.9-2.5z" fill="url(#a)"/></svg>