<svg xmlns="http://www.w3.org/2000/svg" viewBox="0 0 82 20"><path d="M36.9 8.2c2.9 0 5.1 2.2 5.1 5.1 0 .2 0 .6-.1.8 0 .3-.3.5-.5.5h-8.1c.1 1.9 1.8 3.6 3.8 3.6 1.2 0 2.1-.4 2.8-.8.4-.2.6-.4.8-.1.2.2.3.4.5.6.2.3.3.4-.1.7-.7.6-2.2 1.4-4.1 1.4-3.4 0-5.5-2.7-5.5-5.9-.1-3.2 2.1-5.9 5.4-5.9zm3.2 4.8c-.1-1.6-1.4-3.1-3.1-3.1-1.9 0-3.3 1.3-3.5 3.1h6.6zM45 .6c0-.3.3-.5.5-.5h.9c.3 0 .5.3.5.5v8.3s1.2-.7 3-.7c3.4 0 5.4 2.6 5.4 5.9 0 3.2-2.2 5.9-5.1 5.9-2.1 0-3.4-1.5-3.4-1.5l-.2.8c-.1.3-.2.4-.5.4h-.6c-.3 0-.5-.3-.5-.5V.6zm5 17.6c2.1 0 3.3-1.9 3.3-4.1 0-2.2-1.2-4-3.7-4-1.5 0-2.7.7-2.7.7v5.6c.1 0 1.1 1.8 3.1 1.8zm8-13.5c0-.8.6-1.3 1.3-1.3.8 0 1.3.6 1.3 1.3 0 .7-.6 1.3-1.3 1.3-.7 0-1.3-.6-1.3-1.3zm.4 4.3c0-.3.3-.5.5-.5h.9c.3 0 .5.3.5.5v10.2c0 .3-.3.5-.5.5H59c-.3 0-.5-.3-.5-.5V9zm5.9 0c0-.3.3-.5.5-.5h.5c.3 0 .4.1.4.3l.3.9s1.3-1.5 3.6-1.5c1.7 0 2.9.6 3.6 1.8.1-.1 1.9-1.8 4.2-1.8 3.3 0 4.3 2.1 4.3 5v5.9c0 .3-.3.5-.5.5h-.9c-.3 0-.5-.3-.5-.5v-5.9c0-2.1-.9-3.2-2.5-3.2-1.8 0-3 1.2-3.4 1.6.1.5.1 1 .1 1.6v5.9c0 .3-.3.5-.5.5h-.9c-.3 0-.5-.3-.5-.5v-5.9c0-2.1-1-3.2-2.7-3.2-2 0-3.2 1.6-3.2 1.6v7.5c0 .3-.3.5-.5.5h-.9c-.3 0-.5-.3-.5-.5V9zM29.9 0c-.3 0-.6.2-.7.5v.2l-.4 1.8c-.1.6-.2 1.2-.4 1.8l-.1.3c-.3 1.4-.7 2.9-1 4.3-.4 1.5-.8 3-1.2 4.3-.3.8-.5 1.5-.8 2-.1.3-.3.6-.5.9-.2.3-.7 1.4-1.5.1-.1-.2-.3-.5-.5-.8-.7-1.3-1.2-2.9-1.7-4.2l-.4-1c-.3-1.1-.7-2.1-1.1-3.2 0-.1-.1-.2-.1-.3-.3-.7-.6-1.5-1.1-2.3-.2-.4-.5-.8-.7-1.1-.2-.3-.5-.7-1-1.1-.3-.2-.5-.3-.8-.4-.3-.1-.6-.1-.9 0-.3.1-.5.2-.8.4l-.6.6c-.4.2-.6.6-.8 1 0 0 2.2-.3 3.5 2v.1c0 .1.1.1.1.2.3.5.6 1.2.9 2 .4 1 .8 2 1.2 3.1.2.4.3.9.5 1.3.3.7.6 1.5.9 2.3.3.6.6 1.5 1.1 2.3.2.3.4.7.7 1.1.2.3.5.7 1 1.1.2.2.5.3.7.4.3.1.6.1.9.1.4 0 .6-.2.8-.3.2-.1.4-.3.6-.5.4-.4.6-.8.8-1.2l.6-1.2c.3-.7.6-1.5.8-2.4.5-1.6.8-3.2 1.2-4.6.3-1.3.5-2.8.8-4.5l.1-.4.3-1.8.3-1.9V.7c0-.4-.3-.7-.7-.7z" fill="#fff"/><linearGradient id="a" gradientUnits="userSpaceOnUse" x1="-2" y1="49.991" x2="14.369" y2="49.991" gradientTransform="matrix(1 0 0 -1 2 58)"><stop offset="0" stop-color="#28e2ff"/><stop offset="1" stop-color="#2e3192"/></linearGradient><path d="M12.8 3.8L12.2 5c-.2.4-.3.8-.4 1.2l-.4 1.2c-.2.8-.5 1.4-.7 2-.3.7-.5 1.3-.8 1.8-.2.4-.6 1-1 1.4-.3.3-.7.4-1 .4-.4 0-.8-.2-1.3-.6-.3-.3-.7-.7-1.1-1.2-.3-.4-.7-.9-1-1.5-.6-1-1.1-2-1.7-3.2C1.8 4.3 1.1 2.4.5.9.5.8.4.7.3.7H.2C.1.7 0 .7 0 .8v.3c.4 1.7 1 3.8 1.9 6.1.4 1 .8 2.2 1.5 3.5.3.7.7 1.2 1 1.8.4.7.9 1.2 1.3 1.7.3.3.6.5.9.7.4.2.7.4 1.1.4.4.1.8 0 1.2-.1.4-.1.7-.3 1.1-.6.7-.6 1.2-1.3 1.6-1.9.4-.6.7-1.3 1.1-2.1.3-.7.6-1.4.8-2.3l.4-1c.1-.3.3-.7.4-1 .6-1.7 1.5-1.8 2.2-.6-1.5-2.4-3.7-1.9-3.7-1.9z" fill="url(#a)"/></svg>