<svg width="125" height="125" fill="none" xmlns="http://www.w3.org/2000/svg"><path fill-rule="evenodd" clip-rule="evenodd" d="M105.754 112H20.246c-3.803 0-6.72-3.396-6.182-7.188l7.137-50.4C21.64 51.306 24.274 49 27.384 49h4.39v12.6c0 3.478 2.797 6.3 6.244 6.3 3.454 0 6.245-2.822 6.245-6.3V49h37.468v12.6c0 3.478 2.797 6.3 6.244 6.3 3.454 0 6.245-2.822 6.245-6.3V49h4.396c3.11 0 5.745 2.306 6.182 5.412l7.138 50.4c.537 3.792-2.379 7.188-6.182 7.188zM43 31.75C43 21.413 51.525 13 62 13c10.482 0 19 6.25 19 18.75V38H43v-6.25zm81.872 78.981l-8.931-62.5c-.875-6.156-6.15-10.731-12.375-10.731h-9.819v-6.25C93.747 12.5 79.728 0 62.497 0c-17.225 0-31.25 14.019-31.25 31.25v6.25H23.34c-6.218 0-13.406 4.575-14.287 10.731l-8.925 62.5C-.947 118.262 4.897 125 12.503 125h99.994c7.606 0 13.45-6.738 12.375-14.269z" fill="#fff"/></svg>