<?xml version="1.0" encoding="utf-8"?><svg viewBox="0 0 110 74" xmlns="http://www.w3.org/2000/svg" xmlns:xlink="http://www.w3.org/1999/xlink"><style>:root>svg{display:none}:root>svg:target{display:block}</style><svg version="1.1" id="01" x="0" y="0" viewBox="0 0 50 50" xml:space="preserve" xmlns="http://www.w3.org/2000/svg"><style>.ast0{fill:#363b66}</style><path class="ast0" d="M48.2 10c-1.1-1.1-2.7-1.8-4.3-1.8-1.6 0-3.1.6-4.3 1.8L36 13.6V1.7C36 1 35.4.4 34.7.4H12.1c-.4 0-.7.1-1 .4L.4 11.5c-.3.3-.4.6-.4 1v36.2c0 .7.6 1.3 1.4 1.3h33.3c.7 0 1.3-.6 1.3-1.3v-18l12.2-12.2c1.1-1.1 1.8-2.7 1.8-4.3 0-1.5-.6-3.1-1.8-4.2M23.3 38.3l-4.5 1.2L20 35l3.3 3.3zm2.6-1.2l-4.8-4.8 17.1-17.1L43 20 25.9 37.1zM10.8 5v6.2H4.6L10.8 5zm22.5 42.3H2.7V13.8h9.4c.7 0 1.3-.6 1.3-1.3V3.1h19.9v13.2l-15 15.1c-.2.2-.3.4-.4.6l-2.4 9c-.1.5 0 1 .4 1.3.3.3.6.4 1 .4h.3l9-2.4c.2-.1.5-.2.6-.4l6.5-6.5v13.9zm13-30.6l-1.4 1.4-4.8-4.8 1.4-1.4c.6-.6 1.5-1 2.4-1 .9 0 1.7.3 2.4 1 .6.6 1 1.5 1 2.4 0 .9-.3 1.7-1 2.4"/><path class="ast0" d="M11.4 40.1H7.5c-.7 0-1.3.6-1.3 1.3 0 .7.6 1.3 1.3 1.3h3.9c.7 0 1.3-.6 1.3-1.3.1-.7-.5-1.3-1.3-1.3m.7-5.4H7.5c-.7 0-1.3.6-1.3 1.3 0 .7.6 1.3 1.3 1.3h4.6c.7 0 1.3-.6 1.3-1.3.1-.7-.5-1.3-1.3-1.3m1.4-5.4h-6c-.7 0-1.3.6-1.3 1.3 0 .7.6 1.3 1.3 1.3h5.9c.7 0 1.3-.6 1.3-1.3.1-.7-.5-1.3-1.2-1.3m-6-2.7h9.8c.7 0 1.3-.6 1.3-1.3 0-.7-.6-1.3-1.3-1.3H7.5c-.7 0-1.3.6-1.3 1.3 0 .7.6 1.3 1.3 1.3m0-5.4h15.3c.7 0 1.3-.6 1.3-1.3 0-.7-.6-1.3-1.3-1.3H7.5c-.7 0-1.3.6-1.3 1.3 0 .7.6 1.3 1.3 1.3m10-5.3h11.6c.7 0 1.3-.6 1.3-1.3 0-.7-.6-1.3-1.3-1.3H17.5c-.7 0-1.3.6-1.3 1.3-.1.6.5 1.3 1.3 1.3m0-5.4h11.6c.7 0 1.3-.6 1.3-1.3 0-.7-.6-1.3-1.3-1.3H17.5c-.7 0-1.3.6-1.3 1.3-.1.7.5 1.3 1.3 1.3"/></svg><svg version="1.1" id="02" x="0" y="0" viewBox="0 0 50 50" xml:space="preserve" xmlns="http://www.w3.org/2000/svg"><style>.bst0{fill:#363b66}</style><path class="bst0" d="M43.4 28.5l-9.7-8.6c-.5-.5-1.3-.4-1.8.1s-.4 1.3.1 1.8l8.6 7.7-8.6 7.6c-.5.5-.6 1.3-.1 1.8.3.3.6.4 1 .4.3 0 .6-.1.9-.3l9.7-8.6c.3-.2.4-.6.4-1-.1-.3-.3-.7-.5-.9m-25.3-8.6c-.5-.5-1.3-.6-1.8-.1l-9.7 8.6c-.3.2-.4.6-.4 1s.2.7.4 1l9.7 8.6c.2.2.5.3.9.3s.7-.1 1-.4c.5-.5.4-1.3-.1-1.8l-8.6-7.7 8.6-7.7c.5-.4.5-1.2 0-1.8m10-.7c-.7-.2-1.4.2-1.6.9l-5.4 17.8c-.2.7.2 1.4.9 1.6.1 0 .2.1.4.1.6 0 1.1-.4 1.2-.9L29 20.9c.1-.8-.3-1.5-.9-1.7"/><path class="bst0" d="M48.7 0H1.3C.6 0 0 .6 0 1.3v47.4c0 .7.6 1.3 1.3 1.3h47.4c.7 0 1.3-.6 1.3-1.3V1.3c0-.7-.6-1.3-1.3-1.3m-1.3 7.7h-5.1V2.6h5.1v5.1zM10.3 2.6h29.5v5.1H10.3V2.6zm-7.7 0h5.1v5.1H2.6V2.6zm0 7.7h44.9v37.2H2.6V10.3z"/></svg><svg viewBox="0 0 40 40" id="app" xmlns="http://www.w3.org/2000/svg"><defs><path id="ca" d="M0 0h40v40H0z"/></defs><clipPath id="cb"><use xlink:href="#ca" overflow="visible"/></clipPath><path d="M20.3 0C9.5 0 .7 8.8.7 19.7c0 3.4.9 6.8 2.6 9.8L0 39.1c-.1.2 0 .5.1.7.2.1.4.2.6.2h.2l10.6-2.8c2.8 1.4 5.8 2.1 8.9 2.1 10.8 0 19.7-8.8 19.7-19.7C40 8.8 31.2 0 20.3 0" clip-path="url(#cb)" fill="#97ba33"/><defs><path id="cc" d="M0 0h40v40H0z"/></defs><clipPath id="cd"><use xlink:href="#cc" overflow="visible"/></clipPath><path d="M24.9 7.8h-9.1c-1.4 0-2.5 1.1-2.5 2.5v18c0 1.4 1.1 2.5 2.5 2.5h9.1c1.4 0 2.5-1.1 2.5-2.5v-18c0-1.4-1.1-2.5-2.5-2.5m-4.5 22.1c-.8 0-1.4-.6-1.4-1.4 0-.8.6-1.4 1.4-1.4.8 0 1.4.6 1.4 1.4 0 .8-.6 1.4-1.4 1.4m4.7-4.7c0 .4-.4.8-.8.8h-7.9c-.4 0-.8-.3-.8-.8v-15c0-.4.4-.8.8-.8h7.9c.4 0 .8.3.8.8v15z" clip-path="url(#cd)" fill="#fff"/></svg><svg viewBox="0 0 40 40" id="chatbots" xmlns="http://www.w3.org/2000/svg"><path d="M40 20c0 11-9 20-20 20S0 31 0 20 9 0 20 0s20 9 20 20" fill="#6aacce"/><path d="M30.3 17.3h-.8v-1.1c0-1.7-1.4-3.1-3.2-3.1h-5.2v-2.6c.7-.4 1.1-1.1 1.1-2 0-1.3-1-2.3-2.3-2.3-1.3 0-2.3 1-2.3 2.3 0 .8.5 1.6 1.1 2V13h-5.2c-1.7 0-3.1 1.4-3.1 3.1v1.1h-.7c-1 0-1.8.8-1.8 1.8v3.8c0 1 .8 1.8 1.8 1.8h.8v1.1c0 1.7 1.4 3.1 3.1 3.1h1.5v1.7c0 1 .8 1.8 1.8 1.8H23c1 0 1.8-.8 1.8-1.8v-1.7h1.5c1.7 0 3.2-1.4 3.2-3.1v-1.1h.8c1 0 1.8-.8 1.8-1.8V19c-.1-.9-.9-1.7-1.8-1.7m-17.2 1.2c0-1.2.9-2.1 2.1-2.1 1.2 0 2.1.9 2.1 2.1 0 1.2-.9 2.1-2.1 2.1-1.2 0-2.1-1-2.1-2.1m9.7 7.6h-5.7c-.9 0-1.7-.8-1.7-1.7 0-.9.8-1.7 1.7-1.7h5.7c.9 0 1.7.8 1.7 1.7.1.9-.7 1.7-1.7 1.7m2-5.5c-1.2 0-2.1-.9-2.1-2.1 0-1.2.9-2.1 2.1-2.1 1.2 0 2.1.9 2.1 2.1 0 1.1-.9 2.1-2.1 2.1" fill="#fff"/></svg><svg version="1.1" id="email" x="0" y="0" viewBox="0 0 40 40" xml:space="preserve" xmlns="http://www.w3.org/2000/svg"><style>.est1{clip-path:url(#eSVGID_2_);fill:#fff}</style><defs><path id="eSVGID_1_" d="M0 0h40v40H0z"/></defs><clipPath id="eSVGID_2_"><use xlink:href="#eSVGID_1_" overflow="visible"/></clipPath><path d="M20 0c11 0 20 9 20 20s-9 20-20 20S0 31 0 20 9 0 20 0" clip-path="url(#eSVGID_2_)" fill="#7296cd"/><path class="est1" d="M6.9 12.2v15.6l7.6-7.8zm26.2 0v15.6L25.6 20zm-25.6-.7h25l-9.8 10.2c-.7.8-1.7 1.2-2.7 1.2-1 0-2-.4-2.7-1.1L7.5 11.5z"/><path class="est1" d="M23.2 22.3c-.8.9-2 1.4-3.2 1.4-1.2 0-2.4-.5-3.2-1.4l-1.7-1.7-7.6 7.9h25l-7.6-7.9-1.7 1.7z"/></svg><svg viewBox="0 0 40 40" id="feedback" xmlns="http://www.w3.org/2000/svg"><path d="M20 0C9 0 0 9 0 20s9 20 20 20 20-9 20-20S31 0 20 0zm-7.5 13.7H24l-.1-.1c-.6-.6-.6-1.5 0-2.1.6-.6 1.5-.6 2 0l2.7 2.7v.1c.1.1.2.3.3.4.1.2.1.4.1.6v.4c-.1.2-.2.4-.4.6L25.9 19c-.3.3-.6.4-1 .4s-.7-.2-1-.4c-.6-.6-.5-1.5 0-2.1l.1-.2H12.5c-.8 0-1.4-.7-1.4-1.5-.1-.9.6-1.5 1.4-1.5zm15.1 12.6H16l.1.2c.6.6.6 1.5 0 2.1-.3.3-.7.4-1 .4-.4 0-.7-.1-1-.4l-2.7-2.7h-.1c-.2-.2-.3-.4-.4-.6 0-.1-.1-.2-.1-.4s.1-.3.1-.5c.1-.2.2-.4.4-.5l2.7-2.7c.6-.6 1.5-.6 2 0 .6.6.5 1.5 0 2.1v.1h11.5c.8 0 1.4.7 1.4 1.5.1.7-.5 1.4-1.3 1.4z" fill="#dab81a"/></svg><svg viewBox="0 0 110 27" id="logo_color" xmlns="http://www.w3.org/2000/svg"><path d="M49.7 11.1c4 0 6.8 2.9 6.8 6.9 0 .3 0 .8-.1 1 0 .4-.3.6-.7.6H44.9c.1 2.5 2.4 4.9 5.1 4.9 1.6 0 2.9-.6 3.7-1.1.5-.3.8-.5 1.1-.1l.6.9c.3.3.4.6-.1 1-.9.7-2.9 1.7-5.5 1.7-4.6 0-7.4-3.6-7.4-7.9-.1-4.2 2.7-7.9 7.3-7.9zm4.2 6.4c-.1-2.2-1.9-4.1-4.2-4.1-2.5 0-4.5 1.8-4.8 4.1h9zM60.5.9c0-.4.3-.7.7-.7h1.2c.4 0 .7.3.7.7v11.2s1.6-1 4-1c4.5 0 7.2 3.5 7.2 7.9 0 4.3-3 8-6.9 8-2.8 0-4.6-2-4.6-2l-.2 1c-.1.3-.3.6-.6.6h-.8c-.4 0-.7-.3-.7-.7V.9zm6.8 23.7c2.8 0 4.5-2.6 4.5-5.5 0-3-1.7-5.4-4.9-5.4-2.1 0-3.7.9-3.7.9v7.5s1.4 2.5 4.1 2.5zM78 6.4c0-1 .8-1.8 1.8-1.8s1.8.8 1.8 1.8-.8 1.8-1.8 1.8c-1-.1-1.8-.8-1.8-1.8zm.6 5.8c0-.4.3-.7.7-.7h1.2c.4 0 .7.3.7.7v13.7c0 .4-.3.7-.7.7h-1.2c-.4 0-.7-.3-.7-.7V12.2zm7.8 0c0-.4.3-.7.7-.7h.7c.3 0 .5.1.6.5l.3 1.2s1.8-2 4.9-2c2.2 0 3.8.9 4.8 2.5.2-.1 2.6-2.5 5.6-2.5 4.4 0 5.8 2.9 5.8 6.8v8c0 .4-.3.7-.7.7h-1.2c-.4 0-.7-.3-.7-.7v-8c0-2.8-1.2-4.3-3.4-4.3-2.5 0-4.1 1.6-4.6 2.1.1.6.2 1.4.2 2.1v8c0 .4-.3.7-.7.7h-1.2c-.4 0-.7-.3-.7-.7v-8c0-2.9-1.3-4.3-3.6-4.3-2.7 0-4.3 2.1-4.3 2.1v10.1c0 .4-.3.7-.7.7H87c-.4 0-.7-.3-.7-.7l.1-13.6zM40.2.1c-.4 0-.8.3-.9.7V1l-.5 2.4c-.1.8-.3 1.6-.5 2.4l-.1.4c-.4 1.9-.9 3.9-1.4 5.8-.5 2.1-1.1 4-1.7 5.8-.3 1-.7 2-1 2.7l-.6 1.2c-.2.4-1 1.9-2.1.2-.2-.3-.4-.7-.7-1.1-.9-1.7-1.7-3.8-2.3-5.7l-.5-1.4c-.5-1.4-1-2.9-1.6-4.3-.1-.1-.1-.3-.2-.4-.4-.9-.8-2-1.4-3.1-.3-.6-.6-1.1-.9-1.5-.3-.5-.7-1-1.4-1.5-.3-.2-.7-.4-1-.5-.4-.1-.8-.1-1.2 0-.4.1-.7.2-1.1.5-.3.2-.6.5-.8.7-.5.6-.8 1.1-1.1 1.6 0 0 3-.4 4.8 2.6 0 0 0 .1.1.1 0 .1.1.2.2.3.4.7.8 1.6 1.2 2.7.5 1.3 1 2.7 1.6 4.2.2.6.4 1.2.7 1.8.3.9.8 2 1.2 3.1.3.8.8 2 1.4 3.1.2.4.5 1 .9 1.5.3.5.7 1 1.3 1.5.3.2.6.4 1 .5.4.1.8.2 1.2.1.5-.1.9-.3 1.1-.4.3-.2.6-.4.8-.7.5-.5.8-1.1 1.1-1.6.3-.5.5-1 .8-1.6.4-1 .8-2 1.1-3.2.7-2.2 1.1-4.3 1.6-6.2.4-1.8.7-3.7 1.1-6.1l.1-.5c.1-.8.3-1.6.4-2.5l.4-2.5v-.3c-.1-.6-.5-1-1.1-1z" fill="#272a51"/><linearGradient id="ga" gradientUnits="userSpaceOnUse" x1="-2" y1="75.881" x2="20.012" y2="75.881" gradientTransform="matrix(1 0 0 -1 2 86.7)"><stop offset="0" stop-color="#28e2ff"/><stop offset="1" stop-color="#2e3192"/></linearGradient><path d="M17.2 5.1c-.3.5-.5 1-.7 1.6-.2.5-.4 1.1-.6 1.6l-.5 1.6c-.3 1-.6 1.9-.9 2.7-.3.9-.7 1.7-1.1 2.4-.3.5-.8 1.3-1.3 1.8-.5.4-.9.6-1.5.6-.5 0-1.1-.3-1.7-.8-.5-.4-1-.9-1.5-1.6-.4-.6-.9-1.3-1.3-2-.7-1.3-1.5-2.7-2.2-4.3C2.4 5.9 1.5 3.4.8 1.2.7 1.1.6 1 .5 1H.4c-.1 0-.2 0-.3.1-.1 0-.1.1-.1.2s0 .2.1.2c.6 2.2 1.4 5.1 2.5 8.2.5 1.3 1.1 3 2 4.7.4.9.9 1.7 1.3 2.4.6.9 1.1 1.6 1.8 2.2.4.4.8.7 1.2.9.5.3 1 .5 1.4.5.5.1 1.1 0 1.6-.1.5-.2 1-.4 1.5-.8 1-.8 1.6-1.7 2.1-2.5s1-1.7 1.5-2.9c.4-.9.8-1.9 1.1-3l.5-1.4c.2-.5.4-.9.5-1.3.9-2.3 2-2.4 3-.8-1.9-3.2-4.9-2.5-4.9-2.5z" fill="url(#ga)"/></svg><svg version="1.1" id="msn" x="0" y="0" viewBox="0 0 40 40" xml:space="preserve" xmlns="http://www.w3.org/2000/svg"><style>.hst1{fill:#fff}</style><path d="M20.3 0C9.5 0 .7 8.8.7 19.7c0 3.4.9 6.8 2.6 9.8L0 39.1c-.1.2 0 .5.1.7.2.1.4.2.6.2h.2l10.6-2.8c2.8 1.4 5.8 2.1 8.9 2.1 10.8 0 19.7-8.8 19.7-19.7C40 8.8 31.2 0 20.3 0" fill="#3dd3a1"/><path class="hst1" d="M13.6 19.7c0 1.4-1.2 2.6-2.6 2.6-1.4 0-2.6-1.2-2.6-2.6 0-1.4 1.2-2.6 2.6-2.6 1.4-.1 2.6 1.1 2.6 2.6m9.3 0c0 1.4-1.2 2.6-2.6 2.6-1.4 0-2.6-1.2-2.6-2.6 0-1.4 1.2-2.6 2.6-2.6 1.5-.1 2.6 1.1 2.6 2.6m9.4 0c0 1.4-1.2 2.6-2.6 2.6-1.4 0-2.6-1.2-2.6-2.6 0-1.4 1.2-2.6 2.6-2.6 1.5-.1 2.6 1.1 2.6 2.6"/></svg><svg viewBox="0 0 40 40" id="sn" xmlns="http://www.w3.org/2000/svg"><path d="M20 0C9 0 0 9 0 20s9 20 20 20 20-9 20-20S31 0 20 0zm-2.2 20c0 .4-.1.8-.2 1.2l5.6 2.7c.6-.7 1.6-1.1 2.6-1.1 1.9 0 3.5 1.6 3.5 3.5s-1.6 3.5-3.5 3.5-3.5-1.6-3.5-3.5v-.5l-5.9-2.9c-.6.4-1.3.7-2.1.7-1.9 0-3.5-1.6-3.5-3.5s1.6-3.5 3.5-3.5c.8 0 1.5.3 2.1.7l5.9-2.9v-.5c0-1.9 1.6-3.5 3.5-3.5s3.5 1.6 3.5 3.5-1.6 3.5-3.5 3.5c-1 0-1.9-.4-2.6-1.1L17.6 19c.1.2.2.6.2 1z" fill="#3b4269"/></svg><svg viewBox="0 0 74 74" id="step_01" xmlns="http://www.w3.org/2000/svg"><circle cx="37" cy="37" r="37" fill="#2cd3b8"/><path d="M41.8 37.5c3.5 0 6.4-2.8 6.4-6.3 0-3.4-2.9-6.2-6.4-6.2s-6.4 2.8-6.4 6.2c0 3.5 2.9 6.3 6.4 6.3zm-14.3-3.1v-4.7h-3.2v4.7h-4.8v3.1h4.8v4.7h3.2v-4.7h4.8v-3.1h-4.8zm14.3 6.2c-4.3 0-12.7 2-12.7 6.2V50h25.5v-3.1c-.1-4.2-8.5-6.3-12.8-6.3z" fill="#fff"/></svg><svg viewBox="0 0 74 74" id="step_02" xmlns="http://www.w3.org/2000/svg"><circle cx="37" cy="37" r="37" fill="#2cd3b8"/><path d="M47.1 25.5L32.6 39.8 27 34.3l-4.4 4.4 10.1 9.9L51.6 30l-4.5-4.5z" fill="#fff"/></svg><svg viewBox="0 0 74 74" id="step_03" xmlns="http://www.w3.org/2000/svg"><circle cx="37" cy="37" r="37" fill="#2cd3b8"/><path d="M54.9 35c-.1-.5-.6-.9-1.2-.9-1.6 0-3.1-1-3.7-2.5-.6-1.5-.2-3.3 1-4.5.4-.4.4-.9.1-1.4-.8-1.1-1.8-2-2.9-2.9-.4-.3-1-.3-1.4.1-1.1 1.2-3 1.6-4.5 1-1.5-.7-2.5-2.2-2.4-3.9 0-.5-.4-1-.9-1.1-1.3-.2-2.7-.2-4 0-.5.1-.9.5-.9 1 .1 1.7-.9 3.2-2.5 3.8-1.5.6-3.4.2-4.5-1-.4-.4-.9-.4-1.4-.1-1.1.8-2.1 1.8-2.9 2.9-.3.4-.3 1 .1 1.4 1.3 1.1 1.7 2.9 1 4.5-.6 1.5-2.2 2.4-3.9 2.4-.6 0-1 .4-1 .9-.2 1.4-.2 2.7 0 4.1.1.5.7.9 1.2.9 1.6 0 3.1.9 3.7 2.5.6 1.5.2 3.3-1 4.5-.4.4-.4.9-.1 1.4.8 1.1 1.8 2 2.8 2.9.4.3 1 .3 1.4-.1 1.1-1.2 3-1.6 4.5-1 1.6.6 2.5 2.2 2.4 3.9 0 .5.4 1 .9 1.1.8.1 1.5.1 2.2.1.7 0 1.3 0 2-.1.5-.1.9-.5.9-1-.1-1.7.9-3.2 2.5-3.8 1.5-.6 3.4-.2 4.5 1 .4.4.9.4 1.4.1 1.1-.8 2.1-1.8 2.9-2.9.3-.4.3-1-.1-1.4-1.3-1.1-1.7-2.9-1-4.5.4-1.4 1.9-2.4 3.5-2.4h.2c.5 0 1-.4 1.1-.9.1-1.4.1-2.7 0-4.1zM37 47.4c-5.7 0-10.4-4.6-10.4-10.4S31.3 26.6 37 26.6 47.4 31.3 47.4 37c0 1.9-.5 3.8-1.5 5.3l-4.5-4.5c.3-.8.5-1.6.5-2.5 0-1.7-.7-3.3-1.9-4.5-1.2-1.2-2.8-1.9-4.5-1.9-.6 0-1.1.1-1.7.2-.2.1-.4.3-.5.5-.1.2 0 .5.2.7 0 0 2.2 2.3 3 3 .1.1.1.3.1.3-.1.8-.2 1.8-.3 2.2v.1c-.4.1-1.4.3-2.2.3-.1 0-.2 0-.3-.1l-2.9-2.9c-.2-.2-.4-.2-.5-.2-.3 0-.6.2-.7.5-.6 2.2 0 4.6 1.6 6.2 1.2 1.2 2.8 1.9 4.5 1.9.9 0 1.7-.2 2.5-.5l4.6 4.6c-1.9 1.1-3.8 1.7-5.9 1.7z" fill="#fff"/></svg><svg viewBox="0 0 74 74" id="step_04" xmlns="http://www.w3.org/2000/svg"><circle cx="37" cy="37" r="37" fill="#2cd3b8"/><path d="M57 26.3l-.3 2.5c-.1.8-.2 1.6-.4 2.4l-.1.5c-.4 2.3-.7 4.2-1.1 5.9-.4 1.9-.9 4-1.5 6.1-.4 1.2-.7 2.2-1.1 3.1-.2.6-.5 1.1-.7 1.6-.3.5-.6 1-1.1 1.6-.2.3-.5.5-.8.7-.2.2-.6.3-1.1.4-.4.1-.8 0-1.1-.1-.3-.1-.6-.3-.9-.5-.6-.5-1-1-1.3-1.4-.4-.5-.7-1.1-.9-1.5-.6-1.1-1-2.2-1.4-3-.4-1-.8-2.1-1.2-3l-.6-1.8c-.5-1.4-1-2.8-1.5-4.1-.4-1.1-.8-1.9-1.2-2.6 0-.1-.1-.2-.2-.3 0 0 0-.1-.1-.1 0 0 0-.1-.1-.1-.9-1.3-2-1.2-2.8.9-.2.4-.3.8-.5 1.3l-.5 1.2c-.4 1.1-.7 2.1-1.1 3-.5 1.2-.9 2-1.4 2.8-.5.7-1.1 1.7-2 2.4-.5.4-.9.6-1.4.8-.5.2-1 .2-1.6.1-.5-.1-.9-.3-1.4-.5-.4-.2-.8-.5-1.1-.9-.6-.6-1.2-1.3-1.7-2.2-.5-.7-.9-1.5-1.3-2.3-.8-1.7-1.5-3.4-1.9-4.6-1.1-3.1-1.9-5.9-2.4-8 0-.1 0-.2-.1-.2 0-.1 0-.2.1-.3.1-.1.2-.1.3-.1h.1c.1 0 .2.1.2.3.8 2.1 1.6 4.5 3 7.4.7 1.5 1.4 2.9 2.2 4.2.4.7.9 1.4 1.3 2 .6.7 1 1.2 1.5 1.6.6.5 1.1.7 1.6.8.5 0 .9-.2 1.4-.6.5-.5 1-1.2 1.3-1.8.4-.7.7-1.5 1.1-2.4.3-.8.6-1.7.9-2.7l.5-1.5.6-1.5c.2-.6.5-1.1.7-1.6.2-.5.6-1 1-1.5.2-.3.5-.5.8-.7.3-.3.7-.4 1.1-.5.4-.1.8-.1 1.2 0 .3.1.7.3 1 .5.6.5 1 1 1.3 1.4.3.4.6.9.9 1.5.6 1.1 1 2.1 1.4 3 .1.1.1.3.2.4.6 1.4 1.1 2.8 1.6 4.2l.5 1.3c.7 1.8 1.4 3.8 2.3 5.5.2.5.5.8.6 1.1 1.1 1.7 1.8.2 2-.2.2-.3.4-.7.6-1.2.3-.8.7-1.6 1-2.7.6-1.7 1.1-3.7 1.6-5.7.5-1.9.9-3.8 1.3-5.7l.1-.4c.2-.8.4-1.6.5-2.4l.5-2.3v-.2c.1-.4.5-.7.9-.7.5 0 .9.4.9.9l-.2.5z" fill-rule="evenodd" clip-rule="evenodd" fill="#fff"/></svg><svg viewBox="0 0 74 74" id="step_05" xmlns="http://www.w3.org/2000/svg"><circle cx="37" cy="37" r="37" fill="#2cd3b8"/><path d="M51.5 34h-.6v9.4h.6c.9 0 1.6-.7 1.6-1.6v-6.3c-.1-.8-.8-1.5-1.6-1.5zM21 35.6v6.1c0 .9.7 1.7 1.6 1.7h.6V34h-.6c-.9 0-1.6.7-1.6 1.6zm28.4-.3c0-.7-.1-1.4-.2-2.1 0-.2-.1-.5-.2-.7v-1.8c0-6.8-5.4-12.3-12-12.3S25 24 25 30.8V32c-.1.2-.1.3-.2.5-.2.9-.4 1.9-.4 2.8v11.6c0 .5.4.8.8.8h2.5c.8 4.4 4.7 7.8 9.3 7.8 3.6 0 6.8-2.1 8.4-5.2 2.7-.2 4.9-2.5 4.9-5.3h-.9v-9.7zm-5.5 12.6H38c-.7 0-1.2.6-1.2 1.2 0 .7.5 1.2 1.2 1.2h4.6C41.3 52 39.3 53 37.1 53c-3.9 0-7-3.2-7-7.2V38c.9-.6 2.5-1.7 3.6-3.2 1.7 1.4 5.1 3.5 10.5 3.7v7.3l-.3 2.1zm-5.1-23.5h-3.6c-2.7 0-5.2 1-7 2.7C29.5 23.5 33 21 37 21c4.1 0 7.7 2.7 9 6.4-1.8-1.8-4.4-3-7.2-3zm-4.2 15.9h-1.9c-.7 0-1.2.6-1.2 1.2 0 .7.5 1.2 1.2 1.2h1.9c.7 0 1.2-.6 1.2-1.2s-.6-1.2-1.2-1.2zm6.8 0h-1.9c-.7 0-1.2.6-1.2 1.2 0 .7.5 1.2 1.2 1.2h1.9c.7 0 1.2-.6 1.2-1.2s-.6-1.2-1.2-1.2z" fill="#fff"/></svg><svg viewBox="0 0 74 74" id="step_06" xmlns="http://www.w3.org/2000/svg"><circle cx="37" cy="37" r="37" fill="#2cd3b8"/><path d="M41.6 49h-3.4v-3h-2.4v3h-3.4c-.7 0-1.2.6-1.2 1.2 0 .7.5 1.2 1.2 1.2h9.2c.7 0 1.2-.6 1.2-1.2s-.5-1.2-1.2-1.2zM21 42v1.5c0 .5.4 1 1 1h30c.5 0 1-.4 1-1V42H21zm16-15.3c2.6 0 5 .7 7.1 2l.8-1.1c.3-.4.8-.4 1.1-.2.4.3.4.8.2 1.1l-.8 1.1c3.2 2.5 5.2 6.3 5.3 10.7H53V23.5c0-.5-.4-1-1-1H22c-.5 0-1 .4-1 1v16.9h2.3c.1-7.6 6.2-13.7 13.7-13.7zm7 13.1c-.1-.1-.1-.2-.1-.3-.3-1.8-1.2-3.3-2.5-4.3L39 38.5c.4.3.7.8.9 1.3H44zm-7-2h.5l2.6-3.5c-.9-.5-2-.7-3.1-.7-2 0-3.8.8-5.1 2.2 0 .1-.1.1-.1.2-.8 1-1.4 2.2-1.6 3.5 0 .1-.1.2-.1.3h4.1c.3-1.2 1.5-2 2.8-2zm12.1 2c-.2-3.6-2-6.7-4.6-8.8l-2.1 2.9.2.2c1.5 1.3 2.6 3.2 2.9 5.2 0 .2 0 .4-.1.6h3.7zm-21.9-6.4c-1.3 1.8-2.2 4-2.3 6.4h3.7c-.1-.2-.2-.4-.1-.6.2-1.3.8-2.6 1.6-3.7l-2.9-2.1zm4.2.6c1.4-1.2 3-1.9 4.8-2v-3.6c-3.1.2-5.9 1.6-7.9 3.7l2.9 2.1.2-.2zm11.7-3.9c-1.6-.9-3.4-1.5-5.3-1.6V32c1.1.1 2.2.4 3.2 1l2.1-2.9z" fill="#fff"/></svg><svg viewBox="0 0 40 40" id="yad" xmlns="http://www.w3.org/2000/svg"><defs><path id="pa" d="M9.3 30.2c-3-1.8-3.5-2.6-3.5-6.1V17c0-.5.1-.7.3-1.1.3-.6 1-.9 1.6-.9.3 0 .6.1.9.2l5.7 3.3c1.7 1 2.9 3.1 3.1 5.4V34c0 .3-.2.5-.5.5-.1 0-.2 0-.2-.1l-7.4-4.2zm24.8-15c0 .1.1.2.1.2v8.7c-.1 3.7-.6 4.4-4.1 6.4l-5.8 3.4c-.4.2-.7.3-1.1.3-.7 0-1.3-.4-1.6-.9-.2-.3-.3-.6-.3-.9v-6.7c0-2 1.3-4.2 3.2-5.5l8.9-5.1c.3-.2.6-.2.7.1m-16.3.9l-9-5.1c-.2-.1-.3-.4-.2-.7 0-.1.1-.1.2-.2l7.6-4.4C19.7 4 20.6 4 24.1 6l5.8 3.3c.4.2.6.4.8.8.3.6.3 1.3 0 1.9-.2.3-.4.5-.7.7l-5.8 3.4c-.9.5-1.9.8-3.1.8-1.1 0-2.2-.3-3.3-.8M20 0c-1.3 0-2.6.3-3.7 1L5.6 7.3C3.4 8.6 2 11 2 13.6v12.8c0 2.6 1.4 5 3.6 6.3L16.3 39c1.1.7 2.4 1 3.7 1 1.3 0 2.6-.3 3.7-1l10.7-6.3c2.2-1.3 3.6-3.7 3.6-6.3V13.6c0-2.6-1.4-5-3.6-6.3L23.7 1C22.6.3 21.3 0 20 0z"/></defs><clipPath id="pb"><use xlink:href="#pa" overflow="visible"/></clipPath><linearGradient id="pc" gradientUnits="userSpaceOnUse" x1="-87.086" y1="140" x2="-86.919" y2="140" gradientTransform="matrix(219.5379 -11.5055 10.3552 243.9254 17670.57 -35130.559)"><stop offset="0" stop-color="#6f00f9"/><stop offset="1" stop-color="#69bac0"/></linearGradient><path clip-path="url(#pb)" fill="url(#pc)" d="M2.1 41.9l37.6-2-1.8-41.8L.3.1z"/></svg></svg>