<?xml version="1.0" encoding="utf-8"?><svg viewBox="0 0 477.18 477.18" xmlns="http://www.w3.org/2000/svg" xmlns:xlink="http://www.w3.org/1999/xlink"><style>:root>svg{display:none}:root>svg:target{display:block}</style><svg version="1.1" id="cart" x="0" y="0" viewBox="0 0 71 58" xml:space="preserve" enable-background="new 0 0 71 58" xmlns="http://www.w3.org/2000/svg"><style>.ast0{fill:#eea327}.ast0,.ast5,.ast6{fill-rule:evenodd;clip-rule:evenodd}.ast5{fill:#075ea0;fill-opacity:.2319}.ast6{fill:#0c7ed6}.ast9{fill-opacity:8.806050e-02}.ast10,.ast11,.ast9{fill-rule:evenodd;clip-rule:evenodd}.ast10{fill:#005699;fill-opacity:.1527}.ast11{fill:#ffcd61}.ast14{fill:none;stroke:#fff;stroke-width:1.525;stroke-linecap:round}</style><path class="ast0" d="M13.3 15.6c.6-1.1 2-1.5 3.1-.8 1.1.6 1.5 2 .8 3.1l-6.1 10.5c-.6 1.1-2 1.5-3.1.8-1.1-.6-1.5-2-.8-3.1l6.1-10.5zm12.2 2.3c-.6-1.1-.3-2.5.8-3.1 1.1-.6 2.5-.3 3.1.8l6.1 10.5c.6 1.1.3 2.5-.8 3.1-1.1.6-2.5.3-3.1-.8l-6.1-10.5z"/><path class="ast0" d="M27.4 14.4c1.3 0 2.3 1 2.3 2.3 0 1.3-1 2.3-2.3 2.3H15.2c-1.3 0-2.3-1-2.3-2.3 0-1.3 1-2.3 2.3-2.3h12.2z"/><path d="M0 25.8c0-.8.7-1.5 1.5-1.5h53.4c.8 0 1.5.7 1.5 1.5v6.1c0 .8-.7 1.5-1.5 1.5H1.5c-.8 0-1.5-.7-1.5-1.5v-6.1z" fill-rule="evenodd" clip-rule="evenodd" fill="#9ccff7"/><path d="M10.7 25.8c0-.8.7-1.5 1.5-1.5h41.2c.8 0 1.5.7 1.5 1.5v6.1c0 .8-.7 1.5-1.5 1.5H12.2c-.8 0-1.5-.7-1.5-1.5v-6.1z" fill-rule="evenodd" clip-rule="evenodd" fill="#b9e0ff"/><path d="M41.2 33.4l-3.4 21c-.2 1.5-1.5 2.6-3 2.6H9.5c-1.5 0-2.8-1.1-3-2.6l-3.4-21h38.1z" fill-rule="evenodd" clip-rule="evenodd" fill="#48a1e6"/><path d="M51.9 33.4l-3.4 21c-.2 1.5-1.5 2.6-3 2.6H20.1c-1.5 0-2.8-1.1-3-2.6l-3.4-21h38.2z" fill-rule="evenodd" clip-rule="evenodd" fill="#83c2f3"/><path class="ast5" d="M3.1 33.4h10.7l.8 4.8-11-1.8-.5-3z"/><path class="ast5" d="M13.7 33.4l1.1 6.8L50 44.9l1.9-11.5H13.7z"/><path class="ast6" d="M30.5 39.5c0-1.3 1-2.3 2.3-2.3 1.3 0 2.3 1 2.3 2.3v10.7c0 1.3-1 2.3-2.3 2.3-1.3 0-2.3-1-2.3-2.3V39.5zm8.4 0c0-1.3 1-2.3 2.3-2.3 1.3 0 2.3 1 2.3 2.3v10.7c0 1.3-1 2.3-2.3 2.3-1.3 0-2.3-1-2.3-2.3V39.5zm-16.8 0c0-1.3 1-2.3 2.3-2.3 1.3 0 2.3 1 2.3 2.3v10.7c0 1.3-1 2.3-2.3 2.3-1.3 0-2.3-1-2.3-2.3V39.5z"/><defs><filter id="aAdobe_OpacityMaskFilter" filterUnits="userSpaceOnUse" x="16.8" y="10.6" width="45.7" height="32"><feColorMatrix values="1 0 0 0 0 0 1 0 0 0 0 0 1 0 0 0 0 0 1 0"/></filter></defs><mask maskUnits="userSpaceOnUse" x="16.8" y="10.6" width="45.7" height="32" id="amask0_1_"><path d="M10.7 25.8c0-.8.7-1.5 1.5-1.5h41.2c.8 0 1.5.7 1.5 1.5v6.1c0 .8-.7 1.5-1.5 1.5H12.2c-.8 0-1.5-.7-1.5-1.5v-6.1z" fill-rule="evenodd" clip-rule="evenodd" fill="#fff" filter="url(#aAdobe_OpacityMaskFilter)"/></mask><g mask="url(#amask0_1_)"><path class="ast9" d="M20.6 31.1c2.1 0 3.8-1.7 3.8-3.8 0-2.1-1.7-3.8-3.8-3.8-2.1 0-3.8 1.7-3.8 3.8 0 2.1 1.7 3.8 3.8 3.8zm24.4 0c2.1 0 3.8-1.7 3.8-3.8 0-2.1-1.7-3.8-3.8-3.8-2.1 0-3.8 1.7-3.8 3.8 0 2.1 1.7 3.8 3.8 3.8z"/><path class="ast10" d="M46.5 42.5c8.8 0 16-7.2 16-16s-7.2-16-16-16-16 7.2-16 16 7.2 16 16 16z"/></g><path class="ast11" d="M24.8 15.6c.6-1.1 2-1.5 3.1-.8 1.1.6 1.5 2 .8 3.1l-6.1 10.5c-.6 1.1-2 1.5-3.1.8-1.1-.6-1.5-2-.8-3.1l6.1-10.5zM37 17.9c-.6-1.1-.3-2.5.8-3.1 1.1-.6 2.5-.3 3.1.8L47 26.1c.6 1.1.3 2.5-.8 3.1-1.1.6-2.5.3-3.1-.8L37 17.9z"/><path class="ast11" d="M38.9 14.4c1.3 0 2.3 1 2.3 2.3 0 1.3-1 2.3-2.3 2.3H26.7c-1.3 0-2.3-1-2.3-2.3 0-1.3 1-2.3 2.3-2.3h12.2z"/><defs><filter id="aAdobe_OpacityMaskFilter_1_" filterUnits="userSpaceOnUse" x="32.8" y="10.6" width="32" height="32"><feColorMatrix values="1 0 0 0 0 0 1 0 0 0 0 0 1 0 0 0 0 0 1 0"/></filter></defs><mask maskUnits="userSpaceOnUse" x="32.8" y="10.6" width="32" height="32" id="amask1_1_"><path d="M51.9 33.4l-3.4 21c-.2 1.5-1.5 2.6-3 2.6H20.1c-1.5 0-2.8-1.1-3-2.6l-3.4-21h38.2z" fill-rule="evenodd" clip-rule="evenodd" fill="#fff" filter="url(#aAdobe_OpacityMaskFilter_1_)"/></mask><g mask="url(#amask1_1_)"><path class="ast10" d="M48.8 42.5c8.8 0 16-7.2 16-16s-7.2-16-16-16-16 7.2-16 16 7.2 16 16 16z"/></g><path class="ast14" d="M19.1 33.4h10.7m3 0h2.4"/></svg><svg fill="inherit" viewBox="0 0 16 16" id="clock" xmlns="http://www.w3.org/2000/svg"><path d="M8 0C3.6 0 0 3.6 0 8s3.6 8 8 8 8-3.6 8-8-3.6-8-8-8zm0 14c-3.3 0-6-2.7-6-6s2.7-6 6-6 6 2.7 6 6-2.7 6-6 6z"/><path d="M7.4 7.8H5.2v2h4.2v-5h-2v3z"/></svg><svg fill="none" viewBox="0 0 14 14" id="clock1" xmlns="http://www.w3.org/2000/svg"><path d="M11.95 2.05A6.955 6.955 0 007 0C5.13 0 3.372.728 2.05 2.05A6.954 6.954 0 000 7c0 1.87.728 3.628 2.05 4.95A6.954 6.954 0 007 14c1.87 0 3.628-.728 4.95-2.05A6.954 6.954 0 0014 7c0-1.87-.728-3.628-2.05-4.95zM7 12.906A5.913 5.913 0 011.094 7 5.913 5.913 0 017 1.094 5.913 5.913 0 0112.906 7 5.913 5.913 0 017 12.906z" fill="#EF3E36"/><path d="M7.547 6.453V2.078H6.453v5.469h4.156V6.453H7.547z" fill="#EF3E36"/></svg><svg fill="none" viewBox="0 0 24 24" id="done_fill" xmlns="http://www.w3.org/2000/svg"><path d="M12 0C5.4 0 0 5.4 0 12s5.4 12 12 12 12-5.4 12-12S18.6 0 12 0zm-1.2 17.28l-4.44-4.44 1.68-1.68 2.76 2.76 6.36-6.36 1.68 1.68-8.04 8.04z" fill="#7FC92E"/></svg><svg fill="none" viewBox="0 0 16 31" id="fb" xmlns="http://www.w3.org/2000/svg"><path fill-rule="evenodd" clip-rule="evenodd" d="M15.91.221v4.862h-2.89c-1.056 0-1.768.22-2.137.663-.368.441-.552 1.104-.552 1.988v3.48h5.396l-.719 5.452h-4.677v13.977H4.696V16.666H0v-5.451h4.696V7.2c0-2.283.638-4.054 1.915-5.312C7.888.629 9.588 0 11.712 0c1.805 0 3.204.074 4.199.221z" fill="#fff"/></svg><svg viewBox="0 0 477.175 477.175" id="next" xmlns="http://www.w3.org/2000/svg"><path d="M360.731 229.075l-225.1-225.1c-5.3-5.3-13.8-5.3-19.1 0s-5.3 13.8 0 19.1l215.5 215.5-215.5 215.5c-5.3 5.3-5.3 13.8 0 19.1 2.6 2.6 6.1 4 9.5 4 3.4 0 6.9-1.3 9.5-4l225.1-225.1c5.3-5.2 5.3-13.8.1-19z"/></svg><svg fill="inherit" viewBox="0 0 16 16" id="textbook" xmlns="http://www.w3.org/2000/svg"><path d="M13 0H0v16h16V0h-3zM7 2h1v1l-.5-.2L7 3V2zm4 12H2V2h3v4l2.5-1L10 6V2h1v12zm3 0h-1V2h1v12z"/></svg><svg fill="none" viewBox="0 0 31 25" id="twitter" xmlns="http://www.w3.org/2000/svg"><path d="M27.791 6.25c.04.16.06.42.06.781 0 2.885-.706 5.67-2.119 8.354-1.453 2.844-3.491 5.108-6.115 6.79C16.751 24.058 13.462 25 9.748 25 6.196 25 2.947 24.058 0 22.175c.444.04.949.06 1.514.06 2.946 0 5.59-.9 7.931-2.704-1.412 0-2.654-.41-3.723-1.232-1.07-.821-1.807-1.853-2.21-3.095.403.04.787.06 1.15.06.565 0 1.13-.06 1.695-.18-1.453-.32-2.664-1.062-3.632-2.223-.97-1.162-1.454-2.484-1.454-3.967v-.12c.889.52 1.837.801 2.846.841A7.019 7.019 0 012.06 7.332a6.026 6.026 0 01-.788-3.035c0-1.102.303-2.154.909-3.155a17.505 17.505 0 005.782 4.687 17.702 17.702 0 007.296 1.923 8.698 8.698 0 01-.121-1.442 6.22 6.22 0 01.847-3.155 6.198 6.198 0 012.3-2.314A6.176 6.176 0 0121.434 0c.928 0 1.786.18 2.573.54a7.21 7.21 0 012.089 1.443A12.995 12.995 0 0030.152.481c-.484 1.482-1.412 2.644-2.785 3.485A13.72 13.72 0 0031 2.945a13.917 13.917 0 01-3.209 3.305z" fill="#fff"/></svg></svg>