<?xml version="1.0" encoding="utf-8"?><svg viewBox="0 0 602.879 602.879" xmlns="http://www.w3.org/2000/svg" xmlns:xlink="http://www.w3.org/1999/xlink"><style>:root>svg{display:none}:root>svg:target{display:block}</style><svg version="1.1" id="01" x="0" y="0" viewBox="0 0 50 50" xml:space="preserve" xmlns="http://www.w3.org/2000/svg"><style>.ast0{fill:#363b66}</style><path class="ast0" d="M48.2 10c-1.1-1.1-2.7-1.8-4.3-1.8-1.6 0-3.1.6-4.3 1.8L36 13.6V1.7C36 1 35.4.4 34.7.4H12.1c-.4 0-.7.1-1 .4L.4 11.5c-.3.3-.4.6-.4 1v36.2c0 .7.6 1.3 1.4 1.3h33.3c.7 0 1.3-.6 1.3-1.3v-18l12.2-12.2c1.1-1.1 1.8-2.7 1.8-4.3 0-1.5-.6-3.1-1.8-4.2M23.3 38.3l-4.5 1.2L20 35l3.3 3.3zm2.6-1.2l-4.8-4.8 17.1-17.1L43 20 25.9 37.1zM10.8 5v6.2H4.6L10.8 5zm22.5 42.3H2.7V13.8h9.4c.7 0 1.3-.6 1.3-1.3V3.1h19.9v13.2l-15 15.1c-.2.2-.3.4-.4.6l-2.4 9c-.1.5 0 1 .4 1.3.3.3.6.4 1 .4h.3l9-2.4c.2-.1.5-.2.6-.4l6.5-6.5v13.9zm13-30.6l-1.4 1.4-4.8-4.8 1.4-1.4c.6-.6 1.5-1 2.4-1 .9 0 1.7.3 2.4 1 .6.6 1 1.5 1 2.4 0 .9-.3 1.7-1 2.4"/><path class="ast0" d="M11.4 40.1H7.5c-.7 0-1.3.6-1.3 1.3 0 .7.6 1.3 1.3 1.3h3.9c.7 0 1.3-.6 1.3-1.3.1-.7-.5-1.3-1.3-1.3m.7-5.4H7.5c-.7 0-1.3.6-1.3 1.3 0 .7.6 1.3 1.3 1.3h4.6c.7 0 1.3-.6 1.3-1.3.1-.7-.5-1.3-1.3-1.3m1.4-5.4h-6c-.7 0-1.3.6-1.3 1.3 0 .7.6 1.3 1.3 1.3h5.9c.7 0 1.3-.6 1.3-1.3.1-.7-.5-1.3-1.2-1.3m-6-2.7h9.8c.7 0 1.3-.6 1.3-1.3 0-.7-.6-1.3-1.3-1.3H7.5c-.7 0-1.3.6-1.3 1.3 0 .7.6 1.3 1.3 1.3m0-5.4h15.3c.7 0 1.3-.6 1.3-1.3 0-.7-.6-1.3-1.3-1.3H7.5c-.7 0-1.3.6-1.3 1.3 0 .7.6 1.3 1.3 1.3m10-5.3h11.6c.7 0 1.3-.6 1.3-1.3 0-.7-.6-1.3-1.3-1.3H17.5c-.7 0-1.3.6-1.3 1.3-.1.6.5 1.3 1.3 1.3m0-5.4h11.6c.7 0 1.3-.6 1.3-1.3 0-.7-.6-1.3-1.3-1.3H17.5c-.7 0-1.3.6-1.3 1.3-.1.7.5 1.3 1.3 1.3"/></svg><svg version="1.1" id="02" x="0" y="0" viewBox="0 0 50 50" xml:space="preserve" xmlns="http://www.w3.org/2000/svg"><style>.bst0{fill:#363b66}</style><path class="bst0" d="M43.4 28.5l-9.7-8.6c-.5-.5-1.3-.4-1.8.1s-.4 1.3.1 1.8l8.6 7.7-8.6 7.6c-.5.5-.6 1.3-.1 1.8.3.3.6.4 1 .4.3 0 .6-.1.9-.3l9.7-8.6c.3-.2.4-.6.4-1-.1-.3-.3-.7-.5-.9m-25.3-8.6c-.5-.5-1.3-.6-1.8-.1l-9.7 8.6c-.3.2-.4.6-.4 1s.2.7.4 1l9.7 8.6c.2.2.5.3.9.3s.7-.1 1-.4c.5-.5.4-1.3-.1-1.8l-8.6-7.7 8.6-7.7c.5-.4.5-1.2 0-1.8m10-.7c-.7-.2-1.4.2-1.6.9l-5.4 17.8c-.2.7.2 1.4.9 1.6.1 0 .2.1.4.1.6 0 1.1-.4 1.2-.9L29 20.9c.1-.8-.3-1.5-.9-1.7"/><path class="bst0" d="M48.7 0H1.3C.6 0 0 .6 0 1.3v47.4c0 .7.6 1.3 1.3 1.3h47.4c.7 0 1.3-.6 1.3-1.3V1.3c0-.7-.6-1.3-1.3-1.3m-1.3 7.7h-5.1V2.6h5.1v5.1zM10.3 2.6h29.5v5.1H10.3V2.6zm-7.7 0h5.1v5.1H2.6V2.6zm0 7.7h44.9v37.2H2.6V10.3z"/></svg><svg viewBox="0 0 40 40" id="app" xmlns="http://www.w3.org/2000/svg"><defs><path id="ca" d="M0 0h40v40H0z"/></defs><clipPath id="cb"><use xlink:href="#ca" overflow="visible"/></clipPath><path d="M20.3 0C9.5 0 .7 8.8.7 19.7c0 3.4.9 6.8 2.6 9.8L0 39.1c-.1.2 0 .5.1.7.2.1.4.2.6.2h.2l10.6-2.8c2.8 1.4 5.8 2.1 8.9 2.1 10.8 0 19.7-8.8 19.7-19.7C40 8.8 31.2 0 20.3 0" clip-path="url(#cb)" fill="#97ba33"/><defs><path id="cc" d="M0 0h40v40H0z"/></defs><clipPath id="cd"><use xlink:href="#cc" overflow="visible"/></clipPath><path d="M24.9 7.8h-9.1c-1.4 0-2.5 1.1-2.5 2.5v18c0 1.4 1.1 2.5 2.5 2.5h9.1c1.4 0 2.5-1.1 2.5-2.5v-18c0-1.4-1.1-2.5-2.5-2.5m-4.5 22.1c-.8 0-1.4-.6-1.4-1.4 0-.8.6-1.4 1.4-1.4.8 0 1.4.6 1.4 1.4 0 .8-.6 1.4-1.4 1.4m4.7-4.7c0 .4-.4.8-.8.8h-7.9c-.4 0-.8-.3-.8-.8v-15c0-.4.4-.8.8-.8h7.9c.4 0 .8.3.8.8v15z" clip-path="url(#cd)" fill="#fff"/></svg><svg fill="inherit" viewBox="0 0 25 26" id="burger-close" xmlns="http://www.w3.org/2000/svg"><path d="M0 22L21.213.787l2.122 2.121L2.12 24.121z"/><path d="M3 1l21.213 21.213-2.121 2.122L.879 3.12z"/></svg><svg fill="inherit" viewBox="0 0 30 20" id="burger-open" xmlns="http://www.w3.org/2000/svg"><path d="M0 0h30v3H0zm0 8h30v3H0zm0 8h30v3H0z"/></svg><svg viewBox="0 0 40 40" id="chatbots" xmlns="http://www.w3.org/2000/svg"><path d="M40 20c0 11-9 20-20 20S0 31 0 20 9 0 20 0s20 9 20 20" fill="#6aacce"/><path d="M30.3 17.3h-.8v-1.1c0-1.7-1.4-3.1-3.2-3.1h-5.2v-2.6c.7-.4 1.1-1.1 1.1-2 0-1.3-1-2.3-2.3-2.3-1.3 0-2.3 1-2.3 2.3 0 .8.5 1.6 1.1 2V13h-5.2c-1.7 0-3.1 1.4-3.1 3.1v1.1h-.7c-1 0-1.8.8-1.8 1.8v3.8c0 1 .8 1.8 1.8 1.8h.8v1.1c0 1.7 1.4 3.1 3.1 3.1h1.5v1.7c0 1 .8 1.8 1.8 1.8H23c1 0 1.8-.8 1.8-1.8v-1.7h1.5c1.7 0 3.2-1.4 3.2-3.1v-1.1h.8c1 0 1.8-.8 1.8-1.8V19c-.1-.9-.9-1.7-1.8-1.7m-17.2 1.2c0-1.2.9-2.1 2.1-2.1 1.2 0 2.1.9 2.1 2.1 0 1.2-.9 2.1-2.1 2.1-1.2 0-2.1-1-2.1-2.1m9.7 7.6h-5.7c-.9 0-1.7-.8-1.7-1.7 0-.9.8-1.7 1.7-1.7h5.7c.9 0 1.7.8 1.7 1.7.1.9-.7 1.7-1.7 1.7m2-5.5c-1.2 0-2.1-.9-2.1-2.1 0-1.2.9-2.1 2.1-2.1 1.2 0 2.1.9 2.1 2.1 0 1.1-.9 2.1-2.1 2.1" fill="#fff"/></svg><svg viewBox="0 0 512 512" id="cube" xmlns="http://www.w3.org/2000/svg"><linearGradient id="ga" gradientUnits="userSpaceOnUse" x1="256" y1="513.939" x2="256" y2="2.063" gradientTransform="matrix(1 0 0 -1 0 514.001)"><stop offset="0" stop-color="#2af598"/><stop offset="1" stop-color="#009efd"/></linearGradient><path d="M256 .062L0 94.877v322.248l256 94.814 256-94.814V94.877L256 .062zm178.415 108.736L256 174.877l-178.415-66.08L256 42.718l178.415 66.08zM40 137.532l196 72.593v251.752L40 389.284V137.532zm236 324.345V210.124l196-72.593v251.752l-196 72.594z" fill="url(#ga)"/></svg><svg fill="#a17ac1" viewBox="0 0 602.879 602.879" id="cube-simple" xmlns="http://www.w3.org/2000/svg"><path d="M557.504 467.381V135.714a15.299 15.299 0 00-8.484-13.698L307.971 2.071a15.299 15.299 0 00-13.631 0L53.859 121.732a15.3 15.3 0 00-8.484 13.698v331.952a15.301 15.301 0 008.489 13.701L294.629 600.78a15.301 15.301 0 0013.623 0l240.764-119.697a15.3 15.3 0 008.488-13.702zM301.154 46.53l213.227 106.1-6.467 3.218-206.76 102.881L94.395 155.848l-6.466-3.218 213.225-106.1zm-28.628 256.269v239.15l-184.311-91.63V204.731l184.311 91.632v6.436zm242.138-91.632v239.151l-184.31 91.632V296.364l184.311-91.632v6.435z"/><path d="M301.44 602.879a15.88 15.88 0 01-7.034-1.652L53.642 481.53c-5.407-2.688-8.767-8.11-8.767-14.148V135.43c0-6.036 3.357-11.456 8.762-14.146l240.48-119.66c4.35-2.165 9.727-2.165 14.077 0l241.049 119.945c5.404 2.688 8.762 8.109 8.762 14.146v331.667c0 6.039-3.358 11.461-8.766 14.148L308.475 601.227a15.884 15.884 0 01-7.035 1.652zM301.155.969c-2.276 0-4.555.536-6.593 1.55L54.082 122.18a14.716 14.716 0 00-8.207 13.25v331.952a14.717 14.717 0 008.212 13.254l240.765 119.697c4.072 2.023 9.105 2.024 13.178-.001l240.764-119.696c5.064-2.519 8.211-7.597 8.211-13.254V135.714c0-5.655-3.145-10.732-8.207-13.25L307.748 2.519a14.872 14.872 0 00-6.593-1.55zm28.699 541.787V296.054l.277-.138 185.033-91.992v246.705l-.277.138-185.033 91.989zm1-246.083v244.47l183.311-91.134V205.538l-183.311 91.135zm-57.828 246.083L87.715 450.628V203.924l185.311 92.13v246.702zM88.715 450.009l183.311 91.134v-244.47L88.715 205.539v244.47zm212.439-190.721L86.807 152.629 301.154 45.972 515.503 152.63 301.154 259.288zM89.051 152.629l212.104 105.542L513.259 152.63 301.154 47.089 89.051 152.629z"/></svg><svg version="1.1" id="email" x="0" y="0" viewBox="0 0 40 40" xml:space="preserve" fill="#fff" xmlns="http://www.w3.org/2000/svg"><style>.ist1{clip-path:url(#iSVGID_2_);fill:#fff}</style><defs><path id="iSVGID_1_" d="M0 0h40v40H0z"/></defs><clipPath id="iSVGID_2_"><use xlink:href="#iSVGID_1_" overflow="visible"/></clipPath><path d="M20 0c11 0 20 9 20 20s-9 20-20 20S0 31 0 20 9 0 20 0" clip-path="url(#iSVGID_2_)" fill="#7296cd"/><path class="ist1" d="M6.9 12.2v15.6l7.6-7.8zm26.2 0v15.6L25.6 20zm-25.6-.7h25l-9.8 10.2c-.7.8-1.7 1.2-2.7 1.2-1 0-2-.4-2.7-1.1L7.5 11.5z"/><path class="ist1" d="M23.2 22.3c-.8.9-2 1.4-3.2 1.4-1.2 0-2.4-.5-3.2-1.4l-1.7-1.7-7.6 7.9h25l-7.6-7.9-1.7 1.7z"/></svg><svg viewBox="0 0 24 24" id="facebook" xmlns="http://www.w3.org/2000/svg"><path d="M15.997 3.985h2.191V.169C17.81.117 16.51 0 14.996 0c-3.159 0-5.323 1.987-5.323 5.639V9H6.187v4.266h3.486V24h4.274V13.267h3.345l.531-4.266h-3.877V6.062c.001-1.233.333-2.077 2.051-2.077z"/></svg><svg viewBox="0 0 40 40" id="feedback" xmlns="http://www.w3.org/2000/svg"><path d="M20 0C9 0 0 9 0 20s9 20 20 20 20-9 20-20S31 0 20 0zm-7.5 13.7H24l-.1-.1c-.6-.6-.6-1.5 0-2.1.6-.6 1.5-.6 2 0l2.7 2.7v.1c.1.1.2.3.3.4.1.2.1.4.1.6v.4c-.1.2-.2.4-.4.6L25.9 19c-.3.3-.6.4-1 .4s-.7-.2-1-.4c-.6-.6-.5-1.5 0-2.1l.1-.2H12.5c-.8 0-1.4-.7-1.4-1.5-.1-.9.6-1.5 1.4-1.5zm15.1 12.6H16l.1.2c.6.6.6 1.5 0 2.1-.3.3-.7.4-1 .4-.4 0-.7-.1-1-.4l-2.7-2.7h-.1c-.2-.2-.3-.4-.4-.6 0-.1-.1-.2-.1-.4s.1-.3.1-.5c.1-.2.2-.4.4-.5l2.7-2.7c.6-.6 1.5-.6 2 0 .6.6.5 1.5 0 2.1v.1h11.5c.8 0 1.4.7 1.4 1.5.1.7-.5 1.4-1.3 1.4z" fill="#dab81a"/></svg><svg viewBox="0 0 110 27" id="logo_color" xmlns="http://www.w3.org/2000/svg"><path d="M49.7 11.1c4 0 6.8 2.9 6.8 6.9 0 .3 0 .8-.1 1 0 .4-.3.6-.7.6H44.9c.1 2.5 2.4 4.9 5.1 4.9 1.6 0 2.9-.6 3.7-1.1.5-.3.8-.5 1.1-.1l.6.9c.3.3.4.6-.1 1-.9.7-2.9 1.7-5.5 1.7-4.6 0-7.4-3.6-7.4-7.9-.1-4.2 2.7-7.9 7.3-7.9zm4.2 6.4c-.1-2.2-1.9-4.1-4.2-4.1-2.5 0-4.5 1.8-4.8 4.1h9zM60.5.9c0-.4.3-.7.7-.7h1.2c.4 0 .7.3.7.7v11.2s1.6-1 4-1c4.5 0 7.2 3.5 7.2 7.9 0 4.3-3 8-6.9 8-2.8 0-4.6-2-4.6-2l-.2 1c-.1.3-.3.6-.6.6h-.8c-.4 0-.7-.3-.7-.7V.9zm6.8 23.7c2.8 0 4.5-2.6 4.5-5.5 0-3-1.7-5.4-4.9-5.4-2.1 0-3.7.9-3.7.9v7.5s1.4 2.5 4.1 2.5zM78 6.4c0-1 .8-1.8 1.8-1.8s1.8.8 1.8 1.8-.8 1.8-1.8 1.8c-1-.1-1.8-.8-1.8-1.8zm.6 5.8c0-.4.3-.7.7-.7h1.2c.4 0 .7.3.7.7v13.7c0 .4-.3.7-.7.7h-1.2c-.4 0-.7-.3-.7-.7V12.2zm7.8 0c0-.4.3-.7.7-.7h.7c.3 0 .5.1.6.5l.3 1.2s1.8-2 4.9-2c2.2 0 3.8.9 4.8 2.5.2-.1 2.6-2.5 5.6-2.5 4.4 0 5.8 2.9 5.8 6.8v8c0 .4-.3.7-.7.7h-1.2c-.4 0-.7-.3-.7-.7v-8c0-2.8-1.2-4.3-3.4-4.3-2.5 0-4.1 1.6-4.6 2.1.1.6.2 1.4.2 2.1v8c0 .4-.3.7-.7.7h-1.2c-.4 0-.7-.3-.7-.7v-8c0-2.9-1.3-4.3-3.6-4.3-2.7 0-4.3 2.1-4.3 2.1v10.1c0 .4-.3.7-.7.7H87c-.4 0-.7-.3-.7-.7l.1-13.6zM40.2.1c-.4 0-.8.3-.9.7V1l-.5 2.4c-.1.8-.3 1.6-.5 2.4l-.1.4c-.4 1.9-.9 3.9-1.4 5.8-.5 2.1-1.1 4-1.7 5.8-.3 1-.7 2-1 2.7l-.6 1.2c-.2.4-1 1.9-2.1.2-.2-.3-.4-.7-.7-1.1-.9-1.7-1.7-3.8-2.3-5.7l-.5-1.4c-.5-1.4-1-2.9-1.6-4.3-.1-.1-.1-.3-.2-.4-.4-.9-.8-2-1.4-3.1-.3-.6-.6-1.1-.9-1.5-.3-.5-.7-1-1.4-1.5-.3-.2-.7-.4-1-.5-.4-.1-.8-.1-1.2 0-.4.1-.7.2-1.1.5-.3.2-.6.5-.8.7-.5.6-.8 1.1-1.1 1.6 0 0 3-.4 4.8 2.6 0 0 0 .1.1.1 0 .1.1.2.2.3.4.7.8 1.6 1.2 2.7.5 1.3 1 2.7 1.6 4.2.2.6.4 1.2.7 1.8.3.9.8 2 1.2 3.1.3.8.8 2 1.4 3.1.2.4.5 1 .9 1.5.3.5.7 1 1.3 1.5.3.2.6.4 1 .5.4.1.8.2 1.2.1.5-.1.9-.3 1.1-.4.3-.2.6-.4.8-.7.5-.5.8-1.1 1.1-1.6.3-.5.5-1 .8-1.6.4-1 .8-2 1.1-3.2.7-2.2 1.1-4.3 1.6-6.2.4-1.8.7-3.7 1.1-6.1l.1-.5c.1-.8.3-1.6.4-2.5l.4-2.5v-.3c-.1-.6-.5-1-1.1-1z" fill="#272a51"/><linearGradient id="la" gradientUnits="userSpaceOnUse" x1="-2" y1="75.881" x2="20.012" y2="75.881" gradientTransform="matrix(1 0 0 -1 2 86.7)"><stop offset="0" stop-color="#28e2ff"/><stop offset="1" stop-color="#2e3192"/></linearGradient><path d="M17.2 5.1c-.3.5-.5 1-.7 1.6-.2.5-.4 1.1-.6 1.6l-.5 1.6c-.3 1-.6 1.9-.9 2.7-.3.9-.7 1.7-1.1 2.4-.3.5-.8 1.3-1.3 1.8-.5.4-.9.6-1.5.6-.5 0-1.1-.3-1.7-.8-.5-.4-1-.9-1.5-1.6-.4-.6-.9-1.3-1.3-2-.7-1.3-1.5-2.7-2.2-4.3C2.4 5.9 1.5 3.4.8 1.2.7 1.1.6 1 .5 1H.4c-.1 0-.2 0-.3.1-.1 0-.1.1-.1.2s0 .2.1.2c.6 2.2 1.4 5.1 2.5 8.2.5 1.3 1.1 3 2 4.7.4.9.9 1.7 1.3 2.4.6.9 1.1 1.6 1.8 2.2.4.4.8.7 1.2.9.5.3 1 .5 1.4.5.5.1 1.1 0 1.6-.1.5-.2 1-.4 1.5-.8 1-.8 1.6-1.7 2.1-2.5s1-1.7 1.5-2.9c.4-.9.8-1.9 1.1-3l.5-1.4c.2-.5.4-.9.5-1.3.9-2.3 2-2.4 3-.8-1.9-3.2-4.9-2.5-4.9-2.5z" fill="url(#la)"/></svg><svg viewBox="0 0 82 20" id="logo_white" xmlns="http://www.w3.org/2000/svg"><path d="M36.9 8.2c2.9 0 5.1 2.2 5.1 5.1 0 .2 0 .6-.1.8 0 .3-.3.5-.5.5h-8.1c.1 1.9 1.8 3.6 3.8 3.6 1.2 0 2.1-.4 2.8-.8.4-.2.6-.4.8-.1.2.2.3.4.5.6.2.3.3.4-.1.7-.7.6-2.2 1.4-4.1 1.4-3.4 0-5.5-2.7-5.5-5.9-.1-3.2 2.1-5.9 5.4-5.9zm3.2 4.8c-.1-1.6-1.4-3.1-3.1-3.1-1.9 0-3.3 1.3-3.5 3.1h6.6zM45 .6c0-.3.3-.5.5-.5h.9c.3 0 .5.3.5.5v8.3s1.2-.7 3-.7c3.4 0 5.4 2.6 5.4 5.9 0 3.2-2.2 5.9-5.1 5.9-2.1 0-3.4-1.5-3.4-1.5l-.2.8c-.1.3-.2.4-.5.4h-.6c-.3 0-.5-.3-.5-.5V.6zm5 17.6c2.1 0 3.3-1.9 3.3-4.1 0-2.2-1.2-4-3.7-4-1.5 0-2.7.7-2.7.7v5.6c.1 0 1.1 1.8 3.1 1.8zm8-13.5c0-.8.6-1.3 1.3-1.3.8 0 1.3.6 1.3 1.3 0 .7-.6 1.3-1.3 1.3-.7 0-1.3-.6-1.3-1.3zm.4 4.3c0-.3.3-.5.5-.5h.9c.3 0 .5.3.5.5v10.2c0 .3-.3.5-.5.5H59c-.3 0-.5-.3-.5-.5V9zm5.9 0c0-.3.3-.5.5-.5h.5c.3 0 .4.1.4.3l.3.9s1.3-1.5 3.6-1.5c1.7 0 2.9.6 3.6 1.8.1-.1 1.9-1.8 4.2-1.8 3.3 0 4.3 2.1 4.3 5v5.9c0 .3-.3.5-.5.5h-.9c-.3 0-.5-.3-.5-.5v-5.9c0-2.1-.9-3.2-2.5-3.2-1.8 0-3 1.2-3.4 1.6.1.5.1 1 .1 1.6v5.9c0 .3-.3.5-.5.5h-.9c-.3 0-.5-.3-.5-.5v-5.9c0-2.1-1-3.2-2.7-3.2-2 0-3.2 1.6-3.2 1.6v7.5c0 .3-.3.5-.5.5h-.9c-.3 0-.5-.3-.5-.5V9zM29.9 0c-.3 0-.6.2-.7.5v.2l-.4 1.8c-.1.6-.2 1.2-.4 1.8l-.1.3c-.3 1.4-.7 2.9-1 4.3-.4 1.5-.8 3-1.2 4.3-.3.8-.5 1.5-.8 2-.1.3-.3.6-.5.9-.2.3-.7 1.4-1.5.1-.1-.2-.3-.5-.5-.8-.7-1.3-1.2-2.9-1.7-4.2l-.4-1c-.3-1.1-.7-2.1-1.1-3.2 0-.1-.1-.2-.1-.3-.3-.7-.6-1.5-1.1-2.3-.2-.4-.5-.8-.7-1.1-.2-.3-.5-.7-1-1.1-.3-.2-.5-.3-.8-.4-.3-.1-.6-.1-.9 0-.3.1-.5.2-.8.4l-.6.6c-.4.2-.6.6-.8 1 0 0 2.2-.3 3.5 2v.1c0 .1.1.1.1.2.3.5.6 1.2.9 2 .4 1 .8 2 1.2 3.1.2.4.3.9.5 1.3.3.7.6 1.5.9 2.3.3.6.6 1.5 1.1 2.3.2.3.4.7.7 1.1.2.3.5.7 1 1.1.2.2.5.3.7.4.3.1.6.1.9.1.4 0 .6-.2.8-.3.2-.1.4-.3.6-.5.4-.4.6-.8.8-1.2l.6-1.2c.3-.7.6-1.5.8-2.4.5-1.6.8-3.2 1.2-4.6.3-1.3.5-2.8.8-4.5l.1-.4.3-1.8.3-1.9V.7c0-.4-.3-.7-.7-.7z" fill="#fff"/><linearGradient id="ma" gradientUnits="userSpaceOnUse" x1="-2" y1="49.991" x2="14.369" y2="49.991" gradientTransform="matrix(1 0 0 -1 2 58)"><stop offset="0" stop-color="#28e2ff"/><stop offset="1" stop-color="#2e3192"/></linearGradient><path d="M12.8 3.8L12.2 5c-.2.4-.3.8-.4 1.2l-.4 1.2c-.2.8-.5 1.4-.7 2-.3.7-.5 1.3-.8 1.8-.2.4-.6 1-1 1.4-.3.3-.7.4-1 .4-.4 0-.8-.2-1.3-.6-.3-.3-.7-.7-1.1-1.2-.3-.4-.7-.9-1-1.5-.6-1-1.1-2-1.7-3.2C1.8 4.3 1.1 2.4.5.9.5.8.4.7.3.7H.2C.1.7 0 .7 0 .8v.3c.4 1.7 1 3.8 1.9 6.1.4 1 .8 2.2 1.5 3.5.3.7.7 1.2 1 1.8.4.7.9 1.2 1.3 1.7.3.3.6.5.9.7.4.2.7.4 1.1.4.4.1.8 0 1.2-.1.4-.1.7-.3 1.1-.6.7-.6 1.2-1.3 1.6-1.9.4-.6.7-1.3 1.1-2.1.3-.7.6-1.4.8-2.3l.4-1c.1-.3.3-.7.4-1 .6-1.7 1.5-1.8 2.2-.6-1.5-2.4-3.7-1.9-3.7-1.9z" fill="url(#ma)"/></svg><svg version="1.1" id="msn" x="0" y="0" viewBox="0 0 40 40" xml:space="preserve" fill="#fff" xmlns="http://www.w3.org/2000/svg"><style>.nst1{fill:#fff}</style><path d="M20.3 0C9.5 0 .7 8.8.7 19.7c0 3.4.9 6.8 2.6 9.8L0 39.1c-.1.2 0 .5.1.7.2.1.4.2.6.2h.2l10.6-2.8c2.8 1.4 5.8 2.1 8.9 2.1 10.8 0 19.7-8.8 19.7-19.7C40 8.8 31.2 0 20.3 0" fill="#3dd3a1"/><path class="nst1" d="M13.6 19.7c0 1.4-1.2 2.6-2.6 2.6-1.4 0-2.6-1.2-2.6-2.6 0-1.4 1.2-2.6 2.6-2.6 1.4-.1 2.6 1.1 2.6 2.6m9.3 0c0 1.4-1.2 2.6-2.6 2.6-1.4 0-2.6-1.2-2.6-2.6 0-1.4 1.2-2.6 2.6-2.6 1.5-.1 2.6 1.1 2.6 2.6m9.4 0c0 1.4-1.2 2.6-2.6 2.6-1.4 0-2.6-1.2-2.6-2.6 0-1.4 1.2-2.6 2.6-2.6 1.5-.1 2.6 1.1 2.6 2.6"/></svg><svg viewBox="0 0 485.213 485.212" id="phone" xmlns="http://www.w3.org/2000/svg"><path d="M242.607 0C108.629 0 .001 108.628.001 242.606c0 133.976 108.628 242.606 242.606 242.606s242.604-108.631 242.604-242.606C485.212 108.628 376.585 0 242.607 0zm128.112 353.989l-19.425 19.429c-3.468 3.463-13.623 5.624-13.949 5.624-61.452.536-120.621-23.602-164.095-67.08-43.593-43.618-67.759-102.998-67.11-164.657 0-.028 2.224-9.892 5.689-13.324l19.424-19.427c7.108-7.141 20.762-10.368 30.327-7.168l4.086 1.363c9.537 3.197 19.55 13.742 22.185 23.457l9.771 35.862c2.635 9.743-.919 23.604-8.025 30.712l-12.97 12.972c12.734 47.142 49.723 84.138 96.873 96.903l12.965-12.975c7.141-7.141 20.997-10.692 30.719-8.061l35.857 9.806c9.717 2.67 20.26 12.62 23.456 22.154l1.363 4.145c3.168 9.538-.034 23.189-7.141 30.265z"/></svg><svg viewBox="0 0 512 512" id="skype" xmlns="http://www.w3.org/2000/svg"><path d="M361.473 512c-22.453 0-44.696-4.977-64.762-14.441-14.27 2.34-26.543 3.441-38.191 3.441C123.14 501 13 392.191 13 258.45c0-13.024 1.293-26.575 3.937-41.216A147.132 147.132 0 010 148.7C0 66.707 67.54 0 150.559 0c25.836 0 51.078 6.523 73.468 18.93 10.2-1.313 21.36-1.93 34.493-1.93 65.417 0 126.828 25.05 172.917 70.531C477.586 133.074 503 193.777 503 258.457c0 17.137-1.168 31.672-3.648 45.113C507.75 322.332 512 342.39 512 363.3c0 81.993-67.527 148.7-150.527 148.7zm-58.446-56.195l6.145 3.265c15.898 8.457 33.984 12.93 52.3 12.93C422.419 472 472 423.238 472 363.3c0-16.995-3.84-33.187-11.418-48.124l-3.25-6.414 1.574-7.016C461.7 289.31 463 275.555 463 258.457 463 147.375 371.27 57 258.52 57c-14.079 0-25.258.781-35.192 2.465l-7.465 1.262-6.43-3.997C191.825 45.785 171.466 40 150.56 40 89.598 40 40 88.762 40 148.7c0 19.335 5.234 38.316 15.137 54.89l3.988 6.68-1.57 7.62C54.488 232.73 53 245.997 53 258.45 53 370.136 145.195 461 258.52 461c10.949 0 22.917-1.254 37.667-3.945zM385 310.863c0-14.383-2.84-26.75-8.504-36.758-5.664-9.964-13.629-18.308-23.648-24.82-9.852-6.375-21.942-11.836-35.907-16.305-13.804-4.378-29.414-8.41-46.394-12.039-13.438-3.086-23.215-5.488-29.043-7.086-5.695-1.558-11.36-3.77-16.883-6.511-5.324-2.645-9.516-5.828-12.531-9.422-2.813-3.43-5.09-7.39-5.09-12.14 0-7.762 5.164-14.302 13.934-20 9.074-5.93 21.3-8.384 36.34-8.384 16.175 0 28 2.184 35.038 7.504 7.27 5.461 13.602 13.258 18.825 23.16 4.527 7.735 8.605 13.13 12.531 16.583 4.223 3.695 10.32 5.355 18.09 5.355 8.543 0 15.812-2.777 21.539-8.71 5.726-5.903 9.703-12.685 9.703-20.138 0-7.73-3.305-15.73-7.66-23.77-4.324-7.972-11.153-15.628-20.399-22.816-9.148-7.125-20.832-12.886-34.636-17.156-13.766-4.277-30.254-6.41-49.004-6.41-23.418 0-44.149 3.215-61.535 9.625-17.653 6.477-31.383 15.973-40.73 28.11-9.477 12.234-15.036 26.44-15.036 42.21 0 16.547 5.32 30.578 14.328 41.801 8.883 11.024 20.996 19.836 36.074 26.211 14.703 6.207 33.188 11.695 54.965 16.34 16.012 3.363 28.969 6.55 38.52 9.5 9.11 2.816 16.68 6.953 22.41 12.273 5.426 5.055 8.398 11.532 8.398 19.77 0 10.414-5.422 18.957-15.87 26.043C292.14 350.137 277.933 353 260.584 353c-12.632 0-22.878-.996-30.483-4.594-7.57-3.527-13.5-8.11-17.59-13.496-4.317-5.664-8.367-12.773-12.086-21.258-3.32-7.757-7.434-13.8-12.293-17.863-5.059-4.242-11.281-6.789-18.485-6.789-8.77 0-16.14 3.121-21.906 8.48-5.793 5.422-8.742 12.063-8.742 19.696 0 12.238 4.52 24.922 13.465 37.672 8.777 12.644 20.43 22.918 34.531 30.484C206.691 395.742 231.98 401 262.125 401c25.086 0 47.164-3.863 65.547-11.453 18.59-7.66 32.922-18.477 42.637-32.14 9.75-13.7 14.671-29.36 14.691-46.544zm0 0"/></svg><svg viewBox="0 0 40 40" id="sn" xmlns="http://www.w3.org/2000/svg"><path d="M20 0C9 0 0 9 0 20s9 20 20 20 20-9 20-20S31 0 20 0zm-2.2 20c0 .4-.1.8-.2 1.2l5.6 2.7c.6-.7 1.6-1.1 2.6-1.1 1.9 0 3.5 1.6 3.5 3.5s-1.6 3.5-3.5 3.5-3.5-1.6-3.5-3.5v-.5l-5.9-2.9c-.6.4-1.3.7-2.1.7-1.9 0-3.5-1.6-3.5-3.5s1.6-3.5 3.5-3.5c.8 0 1.5.3 2.1.7l5.9-2.9v-.5c0-1.9 1.6-3.5 3.5-3.5s3.5 1.6 3.5 3.5-1.6 3.5-3.5 3.5c-1 0-1.9-.4-2.6-1.1L17.6 19c.1.2.2.6.2 1z" fill="#3b4269"/></svg><svg viewBox="0 0 74 74" id="step_01" xmlns="http://www.w3.org/2000/svg"><circle cx="37" cy="37" r="37" fill="#2cd3b8"/><path d="M41.8 37.5c3.5 0 6.4-2.8 6.4-6.3 0-3.4-2.9-6.2-6.4-6.2s-6.4 2.8-6.4 6.2c0 3.5 2.9 6.3 6.4 6.3zm-14.3-3.1v-4.7h-3.2v4.7h-4.8v3.1h4.8v4.7h3.2v-4.7h4.8v-3.1h-4.8zm14.3 6.2c-4.3 0-12.7 2-12.7 6.2V50h25.5v-3.1c-.1-4.2-8.5-6.3-12.8-6.3z" fill="#fff"/></svg><svg viewBox="0 0 74 74" id="step_02" xmlns="http://www.w3.org/2000/svg"><circle cx="37" cy="37" r="37" fill="#2cd3b8"/><path d="M47.1 25.5L32.6 39.8 27 34.3l-4.4 4.4 10.1 9.9L51.6 30l-4.5-4.5z" fill="#fff"/></svg><svg viewBox="0 0 74 74" id="step_03" xmlns="http://www.w3.org/2000/svg"><circle cx="37" cy="37" r="37" fill="#2cd3b8"/><path d="M54.9 35c-.1-.5-.6-.9-1.2-.9-1.6 0-3.1-1-3.7-2.5-.6-1.5-.2-3.3 1-4.5.4-.4.4-.9.1-1.4-.8-1.1-1.8-2-2.9-2.9-.4-.3-1-.3-1.4.1-1.1 1.2-3 1.6-4.5 1-1.5-.7-2.5-2.2-2.4-3.9 0-.5-.4-1-.9-1.1-1.3-.2-2.7-.2-4 0-.5.1-.9.5-.9 1 .1 1.7-.9 3.2-2.5 3.8-1.5.6-3.4.2-4.5-1-.4-.4-.9-.4-1.4-.1-1.1.8-2.1 1.8-2.9 2.9-.3.4-.3 1 .1 1.4 1.3 1.1 1.7 2.9 1 4.5-.6 1.5-2.2 2.4-3.9 2.4-.6 0-1 .4-1 .9-.2 1.4-.2 2.7 0 4.1.1.5.7.9 1.2.9 1.6 0 3.1.9 3.7 2.5.6 1.5.2 3.3-1 4.5-.4.4-.4.9-.1 1.4.8 1.1 1.8 2 2.8 2.9.4.3 1 .3 1.4-.1 1.1-1.2 3-1.6 4.5-1 1.6.6 2.5 2.2 2.4 3.9 0 .5.4 1 .9 1.1.8.1 1.5.1 2.2.1.7 0 1.3 0 2-.1.5-.1.9-.5.9-1-.1-1.7.9-3.2 2.5-3.8 1.5-.6 3.4-.2 4.5 1 .4.4.9.4 1.4.1 1.1-.8 2.1-1.8 2.9-2.9.3-.4.3-1-.1-1.4-1.3-1.1-1.7-2.9-1-4.5.4-1.4 1.9-2.4 3.5-2.4h.2c.5 0 1-.4 1.1-.9.1-1.4.1-2.7 0-4.1zM37 47.4c-5.7 0-10.4-4.6-10.4-10.4S31.3 26.6 37 26.6 47.4 31.3 47.4 37c0 1.9-.5 3.8-1.5 5.3l-4.5-4.5c.3-.8.5-1.6.5-2.5 0-1.7-.7-3.3-1.9-4.5-1.2-1.2-2.8-1.9-4.5-1.9-.6 0-1.1.1-1.7.2-.2.1-.4.3-.5.5-.1.2 0 .5.2.7 0 0 2.2 2.3 3 3 .1.1.1.3.1.3-.1.8-.2 1.8-.3 2.2v.1c-.4.1-1.4.3-2.2.3-.1 0-.2 0-.3-.1l-2.9-2.9c-.2-.2-.4-.2-.5-.2-.3 0-.6.2-.7.5-.6 2.2 0 4.6 1.6 6.2 1.2 1.2 2.8 1.9 4.5 1.9.9 0 1.7-.2 2.5-.5l4.6 4.6c-1.9 1.1-3.8 1.7-5.9 1.7z" fill="#fff"/></svg><svg viewBox="0 0 74 74" id="step_04" xmlns="http://www.w3.org/2000/svg"><circle cx="37" cy="37" r="37" fill="#2cd3b8"/><path d="M57 26.3l-.3 2.5c-.1.8-.2 1.6-.4 2.4l-.1.5c-.4 2.3-.7 4.2-1.1 5.9-.4 1.9-.9 4-1.5 6.1-.4 1.2-.7 2.2-1.1 3.1-.2.6-.5 1.1-.7 1.6-.3.5-.6 1-1.1 1.6-.2.3-.5.5-.8.7-.2.2-.6.3-1.1.4-.4.1-.8 0-1.1-.1-.3-.1-.6-.3-.9-.5-.6-.5-1-1-1.3-1.4-.4-.5-.7-1.1-.9-1.5-.6-1.1-1-2.2-1.4-3-.4-1-.8-2.1-1.2-3l-.6-1.8c-.5-1.4-1-2.8-1.5-4.1-.4-1.1-.8-1.9-1.2-2.6 0-.1-.1-.2-.2-.3 0 0 0-.1-.1-.1 0 0 0-.1-.1-.1-.9-1.3-2-1.2-2.8.9-.2.4-.3.8-.5 1.3l-.5 1.2c-.4 1.1-.7 2.1-1.1 3-.5 1.2-.9 2-1.4 2.8-.5.7-1.1 1.7-2 2.4-.5.4-.9.6-1.4.8-.5.2-1 .2-1.6.1-.5-.1-.9-.3-1.4-.5-.4-.2-.8-.5-1.1-.9-.6-.6-1.2-1.3-1.7-2.2-.5-.7-.9-1.5-1.3-2.3-.8-1.7-1.5-3.4-1.9-4.6-1.1-3.1-1.9-5.9-2.4-8 0-.1 0-.2-.1-.2 0-.1 0-.2.1-.3.1-.1.2-.1.3-.1h.1c.1 0 .2.1.2.3.8 2.1 1.6 4.5 3 7.4.7 1.5 1.4 2.9 2.2 4.2.4.7.9 1.4 1.3 2 .6.7 1 1.2 1.5 1.6.6.5 1.1.7 1.6.8.5 0 .9-.2 1.4-.6.5-.5 1-1.2 1.3-1.8.4-.7.7-1.5 1.1-2.4.3-.8.6-1.7.9-2.7l.5-1.5.6-1.5c.2-.6.5-1.1.7-1.6.2-.5.6-1 1-1.5.2-.3.5-.5.8-.7.3-.3.7-.4 1.1-.5.4-.1.8-.1 1.2 0 .3.1.7.3 1 .5.6.5 1 1 1.3 1.4.3.4.6.9.9 1.5.6 1.1 1 2.1 1.4 3 .1.1.1.3.2.4.6 1.4 1.1 2.8 1.6 4.2l.5 1.3c.7 1.8 1.4 3.8 2.3 5.5.2.5.5.8.6 1.1 1.1 1.7 1.8.2 2-.2.2-.3.4-.7.6-1.2.3-.8.7-1.6 1-2.7.6-1.7 1.1-3.7 1.6-5.7.5-1.9.9-3.8 1.3-5.7l.1-.4c.2-.8.4-1.6.5-2.4l.5-2.3v-.2c.1-.4.5-.7.9-.7.5 0 .9.4.9.9l-.2.5z" fill-rule="evenodd" clip-rule="evenodd" fill="#fff"/></svg><svg viewBox="0 0 74 74" id="step_05" xmlns="http://www.w3.org/2000/svg"><circle cx="37" cy="37" r="37" fill="#2cd3b8"/><path d="M51.5 34h-.6v9.4h.6c.9 0 1.6-.7 1.6-1.6v-6.3c-.1-.8-.8-1.5-1.6-1.5zM21 35.6v6.1c0 .9.7 1.7 1.6 1.7h.6V34h-.6c-.9 0-1.6.7-1.6 1.6zm28.4-.3c0-.7-.1-1.4-.2-2.1 0-.2-.1-.5-.2-.7v-1.8c0-6.8-5.4-12.3-12-12.3S25 24 25 30.8V32c-.1.2-.1.3-.2.5-.2.9-.4 1.9-.4 2.8v11.6c0 .5.4.8.8.8h2.5c.8 4.4 4.7 7.8 9.3 7.8 3.6 0 6.8-2.1 8.4-5.2 2.7-.2 4.9-2.5 4.9-5.3h-.9v-9.7zm-5.5 12.6H38c-.7 0-1.2.6-1.2 1.2 0 .7.5 1.2 1.2 1.2h4.6C41.3 52 39.3 53 37.1 53c-3.9 0-7-3.2-7-7.2V38c.9-.6 2.5-1.7 3.6-3.2 1.7 1.4 5.1 3.5 10.5 3.7v7.3l-.3 2.1zm-5.1-23.5h-3.6c-2.7 0-5.2 1-7 2.7C29.5 23.5 33 21 37 21c4.1 0 7.7 2.7 9 6.4-1.8-1.8-4.4-3-7.2-3zm-4.2 15.9h-1.9c-.7 0-1.2.6-1.2 1.2 0 .7.5 1.2 1.2 1.2h1.9c.7 0 1.2-.6 1.2-1.2s-.6-1.2-1.2-1.2zm6.8 0h-1.9c-.7 0-1.2.6-1.2 1.2 0 .7.5 1.2 1.2 1.2h1.9c.7 0 1.2-.6 1.2-1.2s-.6-1.2-1.2-1.2z" fill="#fff"/></svg><svg viewBox="0 0 74 74" id="step_06" xmlns="http://www.w3.org/2000/svg"><circle cx="37" cy="37" r="37" fill="#2cd3b8"/><path d="M41.6 49h-3.4v-3h-2.4v3h-3.4c-.7 0-1.2.6-1.2 1.2 0 .7.5 1.2 1.2 1.2h9.2c.7 0 1.2-.6 1.2-1.2s-.5-1.2-1.2-1.2zM21 42v1.5c0 .5.4 1 1 1h30c.5 0 1-.4 1-1V42H21zm16-15.3c2.6 0 5 .7 7.1 2l.8-1.1c.3-.4.8-.4 1.1-.2.4.3.4.8.2 1.1l-.8 1.1c3.2 2.5 5.2 6.3 5.3 10.7H53V23.5c0-.5-.4-1-1-1H22c-.5 0-1 .4-1 1v16.9h2.3c.1-7.6 6.2-13.7 13.7-13.7zm7 13.1c-.1-.1-.1-.2-.1-.3-.3-1.8-1.2-3.3-2.5-4.3L39 38.5c.4.3.7.8.9 1.3H44zm-7-2h.5l2.6-3.5c-.9-.5-2-.7-3.1-.7-2 0-3.8.8-5.1 2.2 0 .1-.1.1-.1.2-.8 1-1.4 2.2-1.6 3.5 0 .1-.1.2-.1.3h4.1c.3-1.2 1.5-2 2.8-2zm12.1 2c-.2-3.6-2-6.7-4.6-8.8l-2.1 2.9.2.2c1.5 1.3 2.6 3.2 2.9 5.2 0 .2 0 .4-.1.6h3.7zm-21.9-6.4c-1.3 1.8-2.2 4-2.3 6.4h3.7c-.1-.2-.2-.4-.1-.6.2-1.3.8-2.6 1.6-3.7l-2.9-2.1zm4.2.6c1.4-1.2 3-1.9 4.8-2v-3.6c-3.1.2-5.9 1.6-7.9 3.7l2.9 2.1.2-.2zm11.7-3.9c-1.6-.9-3.4-1.5-5.3-1.6V32c1.1.1 2.2.4 3.2 1l2.1-2.9z" fill="#fff"/></svg><svg viewBox="0 0 512 512" id="twitter" xmlns="http://www.w3.org/2000/svg"><path d="M512 97.248c-19.04 8.352-39.328 13.888-60.48 16.576 21.76-12.992 38.368-33.408 46.176-58.016-20.288 12.096-42.688 20.64-66.56 25.408C411.872 60.704 384.416 48 354.464 48c-58.112 0-104.896 47.168-104.896 104.992 0 8.32.704 16.32 2.432 23.936-87.264-4.256-164.48-46.08-216.352-109.792-9.056 15.712-14.368 33.696-14.368 53.056 0 36.352 18.72 68.576 46.624 87.232-16.864-.32-33.408-5.216-47.424-12.928v1.152c0 51.008 36.384 93.376 84.096 103.136-8.544 2.336-17.856 3.456-27.52 3.456-6.72 0-13.504-.384-19.872-1.792 13.6 41.568 52.192 72.128 98.08 73.12-35.712 27.936-81.056 44.768-130.144 44.768-8.608 0-16.864-.384-25.12-1.44C46.496 446.88 101.6 464 161.024 464c193.152 0 298.752-160 298.752-298.688 0-4.64-.16-9.12-.384-13.568 20.832-14.784 38.336-33.248 52.608-54.496z"/></svg><svg viewBox="0 0 511.962 511.962" id="vk" xmlns="http://www.w3.org/2000/svg"><path d="M507.399 370.471c-1.376-2.304-9.888-20.8-50.848-58.816-42.88-39.808-37.12-33.344 14.528-102.176 31.456-41.92 44.032-67.52 40.096-78.464-3.744-10.432-26.88-7.68-26.88-7.68l-76.928.448s-5.696-.768-9.952 1.76c-4.128 2.496-6.784 8.256-6.784 8.256s-12.192 32.448-28.448 60.032c-34.272 58.208-48 61.28-53.6 57.664-13.024-8.416-9.76-33.856-9.76-51.904 0-56.416 8.544-79.936-16.672-86.016-8.384-2.016-14.528-3.36-35.936-3.584-27.456-.288-50.72.096-63.872 6.528-8.768 4.288-15.52 13.856-11.392 14.4 5.088.672 16.608 3.104 22.72 11.424 7.904 10.72 7.616 34.848 7.616 34.848s4.544 66.4-10.592 74.656c-10.4 5.664-24.64-5.888-55.2-58.72-15.648-27.04-27.488-56.96-27.488-56.96s-2.272-5.568-6.336-8.544c-4.928-3.616-11.84-4.768-11.84-4.768l-73.152.448s-10.976.32-15.008 5.088c-3.584 4.256-.288 13.024-.288 13.024s57.28 133.984 122.112 201.536c59.488 61.92 127.008 57.856 127.008 57.856h30.592s9.248-1.024 13.952-6.112c4.352-4.672 4.192-13.44 4.192-13.44s-.608-41.056 18.464-47.104c18.784-5.952 42.912 39.68 68.48 57.248 19.328 13.28 34.016 10.368 34.016 10.368l68.384-.96s35.776-2.208 18.816-30.336z"/></svg><svg viewBox="0 0 40 40" id="yad" xmlns="http://www.w3.org/2000/svg"><defs><path id="za" d="M9.3 30.2c-3-1.8-3.5-2.6-3.5-6.1V17c0-.5.1-.7.3-1.1.3-.6 1-.9 1.6-.9.3 0 .6.1.9.2l5.7 3.3c1.7 1 2.9 3.1 3.1 5.4V34c0 .3-.2.5-.5.5-.1 0-.2 0-.2-.1l-7.4-4.2zm24.8-15c0 .1.1.2.1.2v8.7c-.1 3.7-.6 4.4-4.1 6.4l-5.8 3.4c-.4.2-.7.3-1.1.3-.7 0-1.3-.4-1.6-.9-.2-.3-.3-.6-.3-.9v-6.7c0-2 1.3-4.2 3.2-5.5l8.9-5.1c.3-.2.6-.2.7.1m-16.3.9l-9-5.1c-.2-.1-.3-.4-.2-.7 0-.1.1-.1.2-.2l7.6-4.4C19.7 4 20.6 4 24.1 6l5.8 3.3c.4.2.6.4.8.8.3.6.3 1.3 0 1.9-.2.3-.4.5-.7.7l-5.8 3.4c-.9.5-1.9.8-3.1.8-1.1 0-2.2-.3-3.3-.8M20 0c-1.3 0-2.6.3-3.7 1L5.6 7.3C3.4 8.6 2 11 2 13.6v12.8c0 2.6 1.4 5 3.6 6.3L16.3 39c1.1.7 2.4 1 3.7 1 1.3 0 2.6-.3 3.7-1l10.7-6.3c2.2-1.3 3.6-3.7 3.6-6.3V13.6c0-2.6-1.4-5-3.6-6.3L23.7 1C22.6.3 21.3 0 20 0z"/></defs><clipPath id="zb"><use xlink:href="#za" overflow="visible"/></clipPath><linearGradient id="zc" gradientUnits="userSpaceOnUse" x1="-87.086" y1="140" x2="-86.919" y2="140" gradientTransform="matrix(219.5379 -11.5055 10.3552 243.9254 17670.57 -35130.559)"><stop offset="0" stop-color="#6f00f9"/><stop offset="1" stop-color="#69bac0"/></linearGradient><path clip-path="url(#zb)" fill="url(#zc)" d="M2.1 41.9l37.6-2-1.8-41.8L.3.1z"/></svg></svg>