<svg width="31" height="25" fill="none" xmlns="http://www.w3.org/2000/svg"><path d="M27.791 6.25c.04.16.06.42.06.781 0 2.885-.706 5.67-2.119 8.354-1.453 2.844-3.491 5.108-6.115 6.79C16.751 24.058 13.462 25 9.748 25 6.196 25 2.947 24.058 0 22.175c.444.04.949.06 1.514.06 2.946 0 5.59-.9 7.931-2.704-1.412 0-2.654-.41-3.723-1.232-1.07-.821-1.807-1.853-2.21-3.095.403.04.787.06 1.15.06.565 0 1.13-.06 1.695-.18-1.453-.32-2.664-1.062-3.632-2.223-.97-1.162-1.454-2.484-1.454-3.967v-.12c.889.52 1.837.801 2.846.841A7.019 7.019 0 012.06 7.332a6.026 6.026 0 01-.788-3.035c0-1.102.303-2.154.909-3.155a17.505 17.505 0 005.782 4.687 17.702 17.702 0 007.296 1.923 8.698 8.698 0 01-.121-1.442 6.22 6.22 0 01.847-3.155 6.198 6.198 0 012.3-2.314A6.176 6.176 0 0121.434 0c.928 0 1.786.18 2.573.54a7.21 7.21 0 012.089 1.443A12.995 12.995 0 0030.152.481c-.484 1.482-1.412 2.644-2.785 3.485A13.72 13.72 0 0031 2.945a13.917 13.917 0 01-3.209 3.305z" fill="#fff"/></svg>