<svg width="14" height="14" viewBox="0 0 14 14" fill="none" xmlns="http://www.w3.org/2000/svg">
<path d="M11.9498 2.05023C10.6276 0.728137 8.86977 0 7 0C5.13023 0 3.37239 0.728137 2.05023 2.05023C0.728137 3.37239 0 5.13023 0 7C0 8.86977 0.728137 10.6276 2.05023 11.9498C3.37239 13.2719 5.13023 14 7 14C8.86977 14 10.6276 13.2719 11.9498 11.9498C13.2719 10.6276 14 8.86977 14 7C14 5.13023 13.2719 3.37239 11.9498 2.05023ZM7 12.9062C3.74328 12.9062 1.09375 10.2567 1.09375 7C1.09375 3.74328 3.74328 1.09375 7 1.09375C10.2567 1.09375 12.9062 3.74328 12.9062 7C12.9062 10.2567 10.2567 12.9062 7 12.9062Z" fill="#EF3E36"/>
<path d="M7.54688 6.45312V2.07812H6.45312V7.54688H10.6094V6.45312H7.54688Z" fill="#EF3E36"/>
</svg>
