<?xml version="1.0" encoding="iso-8859-1"?>
<!-- Generator: Adobe Illustrator 16.0.0, SVG Export Plug-In . SVG Version: 6.00 Build 0)  -->
<!DOCTYPE svg PUBLIC "-//W3C//DTD SVG 1.1//EN" "http://www.w3.org/Graphics/SVG/1.1/DTD/svg11.dtd">
<svg version="1.1" id="Capa_1" xmlns="http://www.w3.org/2000/svg" xmlns:xlink="http://www.w3.org/1999/xlink" x="0px" y="0px"
	 width="602.879px" height="602.879px" viewBox="0 0 602.879 602.879" style="enable-background:new 0 0 602.879 602.879;"
	 xml:space="preserve" fill="#a17ac1">
<g>
	<g>
		<path d="M557.504,467.381V135.714c0-5.806-3.285-11.111-8.484-13.698L307.971,2.071c-4.293-2.136-9.339-2.136-13.631,0
			L53.859,121.732c-5.198,2.586-8.484,7.893-8.484,13.698v331.952c0,5.809,3.289,11.115,8.489,13.701L294.629,600.78
			c4.29,2.133,9.332,2.133,13.623,0l240.764-119.697C554.217,478.497,557.504,473.19,557.504,467.381z M301.154,46.53l213.227,106.1
			l-6.467,3.218l-206.76,102.881L94.395,155.848l-6.466-3.218L301.154,46.53z M272.526,302.799v239.15L88.215,450.319V211.167
			v-6.436l184.311,91.632V302.799L272.526,302.799z M514.664,211.167v239.151L330.354,541.95v-239.15v-6.436l184.311-91.632V211.167
			z"/>
		<path d="M301.44,602.879c-2.428,0-4.86-0.571-7.034-1.652L53.642,481.53c-5.407-2.688-8.767-8.11-8.767-14.148V135.43
			c0-6.036,3.357-11.456,8.762-14.146L294.117,1.624c4.35-2.165,9.727-2.165,14.077,0l241.049,119.945
			c5.404,2.688,8.762,8.109,8.762,14.146v331.667c0,6.039-3.358,11.461-8.766,14.148L308.475,601.227
			C306.301,602.308,303.868,602.879,301.44,602.879z M301.155,0.969c-2.276,0-4.555,0.536-6.593,1.55L54.082,122.18
			c-5.062,2.519-8.207,7.596-8.207,13.25v331.952c0,5.656,3.146,10.735,8.212,13.254l240.765,119.697
			c4.072,2.023,9.105,2.024,13.178-0.001l240.764-119.696c5.064-2.519,8.211-7.597,8.211-13.254V135.714
			c0-5.655-3.145-10.732-8.207-13.25L307.748,2.519C305.711,1.505,303.431,0.969,301.155,0.969z M329.854,542.756V296.054
			l0.277-0.138l185.033-91.992v246.705l-0.277,0.138L329.854,542.756z M330.854,296.673v244.47l183.311-91.134V205.538
			L330.854,296.673z M273.026,542.756L87.715,450.628V203.924l185.311,92.13V542.756z M88.715,450.009l183.311,91.134v-244.47
			L88.715,205.539V450.009z M301.154,259.288L86.807,152.629L301.154,45.972L515.503,152.63L301.154,259.288z M89.051,152.629
			l212.104,105.542L513.259,152.63L301.154,47.089L89.051,152.629z"/>
	</g>
</g>
<g>
</g>
<g>
</g>
<g>
</g>
<g>
</g>
<g>
</g>
<g>
</g>
<g>
</g>
<g>
</g>
<g>
</g>
<g>
</g>
<g>
</g>
<g>
</g>
<g>
</g>
<g>
</g>
<g>
</g>
</svg>
